<?xml version="1.0" standalone="no"?>
<!DOCTYPE svg PUBLIC "-//W3C//DTD SVG 20010904//EN"
 "http://www.w3.org/TR/2001/REC-SVG-20010904/DTD/svg10.dtd">
<svg version="1.0" xmlns="http://www.w3.org/2000/svg"
 width="201.000000pt" height="217.000000pt" viewBox="0 0 201.000000 217.000000"
 preserveAspectRatio="xMidYMid meet">

<g transform="translate(0.000000,217.000000) scale(0.100000,-0.100000)"
fill="#000000" stroke="none">
<path d="M313 2131 c-18 -12 -37 -35 -44 -55 l-13 -36 -128 0 c-107 0 -128 -2
-128 -15 0 -8 7 -15 15 -15 13 0 15 -22 15 -140 0 -118 -2 -140 -15 -140 -8 0
-15 -7 -15 -15 0 -8 7 -15 15 -15 13 0 15 -22 15 -140 0 -118 -2 -140 -15
-140 -8 0 -15 -4 -15 -10 0 -5 7 -10 15 -10 13 0 15 -22 15 -140 0 -118 -2
-140 -15 -140 -8 0 -15 -7 -15 -15 0 -8 7 -15 15 -15 13 0 15 -22 15 -140 0
-118 -2 -140 -15 -140 -8 0 -15 -7 -15 -15 0 -8 7 -15 15 -15 13 0 15 -22 15
-140 0 -118 -2 -140 -15 -140 -8 0 -15 -7 -15 -15 0 -13 21 -15 130 -15 124 0
130 -1 130 -20 0 -53 57 -110 110 -110 53 0 110 57 110 110 0 20 0 20 765 20
673 0 765 2 765 15 0 8 -6 15 -14 15 -22 0 -26 23 -26 140 0 117 4 140 26 140
8 0 14 7 14 15 0 8 -6 15 -14 15 -22 0 -26 23 -26 140 0 117 4 140 26 140 22
0 17 27 -6 33 -19 5 -20 14 -20 125 0 128 4 152 26 152 8 0 14 5 14 10 0 6 -6
10 -14 10 -22 0 -26 23 -26 140 0 117 4 140 26 140 8 0 14 7 14 15 0 8 -6 15
-14 15 -22 0 -26 23 -26 140 0 117 4 140 26 140 8 0 14 7 14 15 0 13 -91 15
-763 15 l-763 0 -13 36 c-14 39 -62 74 -101 74 -14 0 -39 -9 -57 -19z m-53
-261 l0 -140 -100 0 -100 0 0 140 0 140 100 0 100 0 0 -140z m410 0 l0 -140
-95 0 -95 0 0 140 0 140 95 0 95 0 0 -140z m620 0 l0 -140 -90 0 c-86 0 -90 1
-96 24 -3 13 -21 39 -40 57 -31 30 -41 34 -89 34 -48 0 -58 -4 -89 -34 -19
-18 -37 -44 -40 -57 -6 -22 -11 -24 -76 -24 l-70 0 0 140 0 140 295 0 295 0 0
-140z m660 0 l0 -140 -315 0 -315 0 0 140 0 140 315 0 315 0 0 -140z m-942
-82 c23 -23 13 -59 -25 -94 l-37 -34 37 0 c20 0 37 -4 37 -10 0 -5 -25 -10
-55 -10 -30 0 -55 2 -55 5 0 3 21 28 46 55 29 31 44 55 40 65 -7 19 -42 20
-50 0 -7 -18 -26 -20 -26 -2 0 21 22 37 50 37 14 0 31 -5 38 -12z m-748 -228
l0 -140 -100 0 -100 0 0 140 0 140 100 0 100 0 0 -140z m410 0 l0 -140 -95 0
-95 0 0 140 0 140 95 0 95 0 0 -140z m176 116 c3 -13 21 -39 40 -57 31 -30 41
-34 89 -34 48 0 58 4 89 34 19 18 37 44 40 57 6 23 10 24 96 24 l90 0 0 -140
0 -140 -292 2 -293 3 -3 138 -3 137 71 0 c65 0 70 -2 76 -24z m1102 -113 l-3
-138 -112 -3 -111 -3 -7 29 c-3 16 -22 44 -41 63 -31 30 -41 34 -89 34 -48 0
-58 -4 -89 -34 -19 -19 -38 -47 -41 -63 -6 -27 -8 -28 -71 -28 l-64 0 0 140 0
140 315 0 316 0 -3 -137z m-328 -122 c0 -30 5 -52 13 -55 10 -5 10 -7 0 -12
-7 -3 -13 -14 -13 -25 0 -10 -7 -19 -15 -19 -8 0 -15 9 -15 20 0 15 -7 20 -29
20 -17 0 -32 4 -35 8 -7 12 65 112 81 112 9 0 13 -15 13 -49z m-1360 -181 l0
-140 -100 0 -100 0 0 140 0 140 100 0 100 0 0 -140z m410 0 l0 -140 -95 0 -95
0 0 140 0 140 95 0 95 0 0 -140z m620 0 l0 -140 -295 0 -295 0 0 133 c0 74 3
137 7 140 3 4 136 7 295 7 l288 0 0 -140z m165 112 c3 -16 22 -44 41 -63 31
-30 41 -34 89 -34 48 0 58 4 89 34 19 19 38 47 41 63 l7 29 111 -3 112 -3 3
-137 3 -138 -115 0 -114 0 -7 28 c-3 16 -22 44 -41 63 -31 30 -41 34 -89 34
-48 0 -58 -4 -89 -34 -19 -19 -38 -47 -41 -63 -6 -27 -8 -28 -71 -28 l-64 0 0
140 0 140 64 0 c63 0 65 -1 71 -28z m165 -197 c7 -8 10 -25 6 -39 -3 -14 -2
-28 4 -31 15 -9 12 -42 -6 -59 -18 -19 -65 -21 -82 -4 -16 16 -15 28 3 28 8 0
15 -5 15 -11 0 -6 10 -9 22 -7 30 4 37 38 9 45 -26 7 -27 15 -1 31 11 7 17 18
14 27 -7 17 -44 21 -44 5 0 -5 -7 -10 -15 -10 -13 0 -14 4 -5 20 13 24 62 27
80 5z m-1360 -225 l0 -140 -100 0 -100 0 0 140 0 140 100 0 100 0 0 -140z
m410 0 l0 -140 -95 0 -95 0 0 140 0 140 95 0 95 0 0 -140z m620 0 l0 -140
-295 0 -295 0 0 140 0 140 295 0 295 0 0 -140z m166 116 c3 -13 21 -39 40 -57
31 -30 41 -34 89 -34 48 0 58 4 89 34 19 18 37 44 40 57 6 24 9 24 121 24
l115 0 0 -140 0 -140 -315 0 -315 0 0 140 0 140 65 0 c60 0 65 -2 71 -24z
m-1196 -426 l0 -140 -100 0 -100 0 0 140 0 140 100 0 100 0 0 -140z m410 0 l0
-140 -95 0 -95 0 0 140 0 140 95 0 95 0 0 -140z m620 0 l0 -140 -295 0 -295 0
0 140 0 140 295 0 295 0 0 -140z m660 0 l0 -140 -315 0 -315 0 0 140 0 140
315 0 315 0 0 -140z"/>
<path d="M1566 1415 c-16 -24 -16 -25 4 -25 15 0 20 7 20 25 0 14 -2 25 -4 25
-2 0 -11 -11 -20 -25z"/>
<path d="M361 172 c-22 -38 -41 -74 -41 -80 0 -7 16 -12 40 -12 33 0 40 -3 40
-20 0 -11 7 -20 15 -20 8 0 15 9 15 20 0 11 7 20 15 20 8 0 15 7 15 15 0 8 -7
15 -15 15 -12 0 -15 14 -15 65 0 86 -16 85 -69 -3z m39 -32 c0 -23 -4 -30 -20
-30 -24 0 -25 8 -4 38 20 29 24 28 24 -8z"/>
</g>
</svg>
