<?xml version="1.0" standalone="no"?>
<!DOCTYPE svg PUBLIC "-//W3C//DTD SVG 20010904//EN"
 "http://www.w3.org/TR/2001/REC-SVG-20010904/DTD/svg10.dtd">
<svg version="1.0" xmlns="http://www.w3.org/2000/svg"
 width="201.000000pt" height="217.000000pt" viewBox="0 0 201.000000 217.000000"
 preserveAspectRatio="xMidYMid meet">

<g transform="translate(0.000000,217.000000) scale(0.100000,-0.100000)"
fill="#000000" stroke="none">
<path d="M323 2111 c-18 -12 -37 -35 -44 -55 l-13 -36 -133 0 c-112 0 -133 -2
-133 -15 0 -8 9 -15 20 -15 19 0 20 -7 20 -140 0 -133 -1 -140 -20 -140 -11 0
-20 -7 -20 -15 0 -8 9 -15 20 -15 19 0 20 -7 20 -140 0 -133 -1 -140 -20 -140
-11 0 -20 -4 -20 -10 0 -5 9 -10 20 -10 19 0 20 -7 20 -140 0 -133 -1 -140
-20 -140 -11 0 -20 -7 -20 -15 0 -8 9 -15 20 -15 19 0 20 -7 20 -140 0 -133
-1 -140 -20 -140 -11 0 -20 -7 -20 -15 0 -8 9 -15 20 -15 19 0 20 -7 20 -140
0 -133 -1 -140 -20 -140 -11 0 -20 -7 -20 -15 0 -13 22 -15 135 -15 129 0 135
-1 135 -20 0 -53 57 -110 110 -110 53 0 110 57 110 110 0 20 1 20 760 20 534
0 760 3 760 11 0 6 -7 17 -15 25 -22 22 -22 246 0 268 19 18 19 24 0 42 -22
22 -22 246 0 268 19 19 19 32 0 40 -23 8 -22 248 1 270 14 15 14 17 0 32 -23
22 -23 245 -1 268 19 18 19 24 0 42 -22 22 -22 246 0 268 8 8 15 19 15 25 0 8
-226 11 -758 11 l-758 0 -13 36 c-14 39 -62 74 -101 74 -14 0 -39 -9 -57 -19z
m-53 -261 l0 -140 -100 0 -100 0 0 140 0 140 100 0 100 0 0 -140z m410 0 l0
-140 -95 0 -95 0 0 140 0 140 95 0 95 0 0 -140z m620 0 l0 -140 -295 0 -295 0
0 140 0 140 295 0 295 0 0 -140z m660 0 l0 -140 -315 0 -315 0 0 140 0 140
315 0 315 0 0 -140z m-1690 -310 l0 -140 -100 0 -100 0 0 140 0 140 100 0 100
0 0 -140z m410 0 l0 -140 -95 0 -95 0 0 140 0 140 95 0 95 0 0 -140z m620 0
l0 -140 -292 2 -293 3 -3 138 -3 137 296 0 295 0 0 -140z m658 3 l-3 -138
-312 -3 -313 -2 0 140 0 140 315 0 316 0 -3 -137z m-1688 -303 l0 -140 -100 0
-100 0 0 140 0 140 100 0 100 0 0 -140z m410 0 l0 -140 -95 0 -95 0 0 140 0
140 95 0 95 0 0 -140z m620 0 l0 -140 -89 0 -89 0 -6 33 c-4 19 -21 48 -42 68
-31 30 -41 34 -89 34 -48 0 -58 -4 -89 -34 -21 -20 -38 -49 -42 -68 l-6 -33
-69 0 -69 0 0 133 c0 74 3 137 7 140 3 4 136 7 295 7 l288 0 0 -140z m658 -2
l3 -138 -316 0 -315 0 0 140 0 140 313 -2 312 -3 3 -137z m-940 -70 c23 -23
13 -59 -25 -94 l-37 -34 37 0 c20 0 37 -4 37 -10 0 -5 -25 -10 -55 -10 -30 0
-55 2 -55 5 0 3 21 28 46 55 29 31 44 55 40 65 -7 19 -42 20 -50 0 -7 -18 -26
-20 -26 -2 0 33 62 51 88 25z m-748 -238 l0 -140 -100 0 -100 0 0 140 0 140
100 0 100 0 0 -140z m410 0 l0 -140 -95 0 -95 0 0 140 0 140 95 0 95 0 0 -140z
m179 118 c5 -13 23 -36 41 -53 27 -26 39 -30 85 -30 46 0 58 4 85 30 18 17 36
40 41 53 8 21 14 22 99 22 l90 0 0 -140 0 -140 -295 0 -295 0 0 140 0 140 70
0 c64 0 71 -2 79 -22z m1101 -118 l0 -140 -114 0 -113 0 -6 38 c-5 25 -18 49
-42 72 -32 31 -42 35 -90 35 -48 0 -58 -4 -90 -35 -24 -23 -37 -47 -42 -72
l-6 -38 -63 0 -64 0 0 140 0 140 315 0 315 0 0 -140z m-330 -65 c7 -8 10 -25
6 -39 -3 -14 -2 -28 4 -31 15 -9 12 -42 -6 -59 -18 -19 -65 -21 -82 -4 -16 16
-15 28 3 28 8 0 15 -5 15 -11 0 -6 10 -9 22 -7 30 4 37 38 9 45 -26 7 -27 15
-1 31 11 7 17 18 14 27 -7 17 -44 21 -44 5 0 -5 -7 -10 -15 -10 -13 0 -14 4
-5 20 13 24 62 27 80 5z m-1360 -245 l0 -140 -100 0 -100 0 0 140 0 140 100 0
100 0 0 -140z m410 0 l0 -140 -95 0 -95 0 0 140 0 140 95 0 95 0 0 -140z m620
0 l0 -140 -295 0 -295 0 0 140 0 140 295 0 295 0 0 -140z m170 127 c0 -7 16
-29 36 -48 31 -30 41 -34 89 -34 48 0 58 4 89 34 20 19 36 41 36 48 0 10 28
13 120 13 l120 0 0 -140 0 -140 -315 0 -315 0 0 140 0 140 70 0 c51 0 70 -4
70 -13z"/>
<path d="M371 162 c-22 -38 -41 -74 -41 -80 0 -7 16 -12 40 -12 33 0 40 -3 40
-20 0 -11 7 -20 15 -20 8 0 15 9 15 20 0 11 7 20 15 20 8 0 15 7 15 15 0 8 -7
15 -15 15 -12 0 -15 14 -15 65 0 86 -16 85 -69 -3z m39 -32 c0 -23 -4 -30 -20
-30 -24 0 -25 8 -4 38 20 29 24 28 24 -8z"/>
</g>
</svg>
