<?xml version="1.0" standalone="no"?>
<!DOCTYPE svg PUBLIC "-//W3C//DTD SVG 20010904//EN"
 "http://www.w3.org/TR/2001/REC-SVG-20010904/DTD/svg10.dtd">
<svg version="1.0" xmlns="http://www.w3.org/2000/svg"
 width="201.000000pt" height="219.000000pt" viewBox="0 0 201.000000 219.000000"
 preserveAspectRatio="xMidYMid meet">

<g transform="translate(0.000000,219.000000) scale(0.100000,-0.100000)"
fill="#000000" stroke="none">
<path d="M323 2141 c-18 -12 -37 -35 -44 -55 l-13 -36 -133 0 c-112 0 -133 -2
-133 -15 0 -8 9 -15 20 -15 19 0 20 -7 20 -140 0 -133 -1 -140 -20 -140 -11 0
-20 -7 -20 -15 0 -8 9 -15 20 -15 19 0 20 -7 20 -140 0 -133 -1 -140 -20 -140
-11 0 -20 -4 -20 -10 0 -5 9 -10 20 -10 19 0 20 -7 20 -140 0 -133 -1 -140
-20 -140 -11 0 -20 -7 -20 -15 0 -8 9 -15 20 -15 19 0 20 -7 20 -140 0 -133
-1 -140 -20 -140 -11 0 -20 -7 -20 -15 0 -8 9 -15 20 -15 19 0 20 -7 20 -140
0 -133 -1 -140 -20 -140 -11 0 -20 -7 -20 -15 0 -13 22 -15 135 -15 129 0 135
-1 135 -20 0 -53 57 -110 110 -110 53 0 110 57 110 110 0 20 1 20 760 20 534
0 760 3 760 11 0 6 -7 17 -15 25 -22 22 -22 246 0 268 19 18 19 24 0 42 -22
22 -22 246 0 268 19 19 19 32 0 40 -23 8 -22 248 1 270 14 15 14 17 0 32 -23
22 -23 245 -1 268 19 18 19 24 0 42 -22 22 -22 246 0 268 8 8 15 19 15 25 0 8
-226 11 -758 11 l-758 0 -13 36 c-14 39 -62 74 -101 74 -14 0 -39 -9 -57 -19z
m-53 -261 l0 -140 -100 0 -100 0 0 140 0 140 100 0 100 0 0 -140z m430 0 l0
-140 -105 0 -105 0 0 140 0 140 105 0 105 0 0 -140z m640 0 l0 -140 -129 0
-129 0 -7 28 c-3 16 -22 44 -41 63 -31 30 -41 34 -89 34 -48 0 -58 -4 -89 -34
-19 -19 -38 -47 -41 -63 -6 -25 -11 -28 -45 -28 -25 0 -40 5 -44 16 -3 9 -6
64 -6 124 0 60 3 115 6 124 5 14 42 16 310 16 l304 0 0 -140z m620 0 l0 -140
-295 0 -295 0 0 140 0 140 295 0 295 0 0 -140z m-980 -75 c7 -8 10 -26 8 -40
-3 -14 -1 -28 3 -31 13 -8 11 -48 -3 -62 -20 -20 -76 -15 -88 8 -8 15 -8 20 3
20 7 0 18 -5 24 -11 16 -16 43 -3 43 21 0 13 -7 20 -20 20 -26 0 -25 8 3 30
17 15 19 21 10 31 -10 10 -18 10 -38 -1 -30 -16 -42 -8 -20 14 21 20 59 21 75
1z m-710 -235 l0 -140 -100 0 -100 0 0 140 0 140 100 0 100 0 0 -140z m428 3
l-3 -138 -102 -3 -103 -3 0 141 0 140 105 0 106 0 -3 -137z m121 115 c5 -13
23 -36 41 -53 27 -26 39 -30 85 -30 46 0 58 4 85 30 18 17 36 40 41 53 8 21
13 22 139 22 l130 0 0 -140 0 -140 -304 0 c-268 0 -305 2 -310 16 -3 9 -6 64
-6 124 0 60 3 115 6 124 4 11 19 16 45 16 32 0 41 -4 48 -22z m1139 -115 l-3
-138 -56 -3 -57 -3 -6 34 c-4 19 -21 48 -42 68 -32 31 -40 34 -94 34 -54 0
-62 -3 -94 -34 -21 -20 -38 -49 -42 -68 l-6 -33 -94 0 -94 0 0 140 0 140 295
0 296 0 -3 -137z m-228 -102 c0 -30 5 -52 13 -55 10 -5 10 -7 0 -12 -7 -3 -13
-14 -13 -25 0 -10 -4 -19 -10 -19 -5 0 -10 9 -10 20 0 16 -7 20 -35 20 -19 0
-35 5 -35 11 0 15 69 109 81 109 5 0 9 -22 9 -49z m-1460 -201 l0 -140 -100 0
-100 0 0 140 0 140 100 0 100 0 0 -140z m428 -2 l3 -138 -106 0 -105 0 0 140
0 141 103 -3 102 -3 3 -137z m642 2 l0 -140 -129 0 -129 0 -6 33 c-4 19 -21
48 -42 68 -31 30 -41 34 -89 34 -48 0 -58 -4 -89 -34 -21 -20 -38 -49 -42 -68
-6 -33 -8 -34 -48 -31 l-41 3 -3 115 c-1 63 0 125 3 138 l5 22 305 0 305 0 0
-140z m229 118 c5 -13 23 -36 41 -53 27 -26 38 -30 90 -30 52 0 63 4 90 30 18
17 36 40 41 53 8 21 14 23 66 20 l58 -3 3 -137 3 -138 -296 0 -295 0 0 140 0
140 95 0 c90 0 96 -1 104 -22z m-579 -187 c15 -30 13 -38 -26 -81 l-36 -40 36
0 c20 0 36 -4 36 -10 0 -5 -25 -10 -55 -10 -34 0 -55 4 -55 11 0 6 18 28 40
48 22 20 40 44 40 54 0 26 -30 34 -46 13 -19 -27 -38 -16 -19 12 21 28 70 30
85 3z m-720 -241 l0 -140 -100 0 -100 0 0 140 0 140 100 0 100 0 0 -140z m430
0 l0 -140 -105 0 -105 0 0 140 0 140 105 0 105 0 0 -140z m145 93 c42 -47 44
-48 100 -48 56 0 58 1 100 48 l43 47 126 0 126 0 0 -140 0 -140 -304 0 c-268
0 -305 2 -310 16 -3 9 -6 64 -6 124 0 60 3 115 6 124 4 10 18 16 41 16 29 0
42 -8 78 -47z m1115 -93 l0 -140 -295 0 -295 0 0 140 0 140 295 0 295 0 0
-140z m-1690 -310 l0 -140 -100 0 -100 0 0 140 0 140 100 0 100 0 0 -140z
m430 0 l0 -140 -105 0 -105 0 0 140 0 140 105 0 105 0 0 -140z m640 0 l0 -140
-304 0 c-268 0 -305 2 -310 16 -3 9 -6 64 -6 124 0 60 3 115 6 124 5 14 42 16
310 16 l304 0 0 -140z m620 0 l0 -140 -295 0 -295 0 0 140 0 140 295 0 295 0
0 -140z"/>
<path d="M1688 1455 c-23 -30 -22 -35 2 -35 16 0 20 7 20 30 0 36 0 36 -22 5z"/>
<path d="M361 234 c-62 -78 18 -227 82 -156 37 41 5 122 -43 109 -15 -4 -20 0
-20 14 0 22 32 39 38 21 4 -14 42 -16 42 -3 0 18 -31 41 -55 41 -14 0 -32 -11
-44 -26z m64 -109 c0 -23 -4 -30 -20 -30 -21 0 -31 25 -21 51 11 28 41 12 41
-21z"/>
</g>
</svg>
