
<svg version="1.0" xmlns="http://www.w3.org/2000/svg"
 width="264.000000pt" height="199.000000pt" viewBox="0 0 264.000000 199.000000"
 preserveAspectRatio="xMidYMid meet">

<g transform="translate(0.000000,199.000000) scale(0.100000,-0.100000)"
fill="#000000" stroke="none">
<path d="M0 1915 c0 -8 9 -15 20 -15 19 0 20 -7 20 -140 0 -133 -1 -140 -20
-140 -11 0 -20 -7 -20 -15 0 -8 9 -15 20 -15 19 0 20 -7 20 -140 0 -133 -1
-140 -20 -140 -11 0 -20 -4 -20 -10 0 -5 9 -10 20 -10 19 0 20 -7 20 -140 0
-133 -1 -140 -20 -140 -11 0 -20 -7 -20 -15 0 -8 9 -15 20 -15 19 0 20 -7 20
-140 0 -133 -1 -140 -20 -140 -11 0 -20 -7 -20 -15 0 -8 9 -15 20 -15 19 0 20
-7 20 -140 0 -133 -1 -140 -20 -140 -11 0 -20 -7 -20 -15 0 -13 122 -15 1035
-15 l1034 0 40 -42 c38 -41 42 -43 96 -43 54 0 58 2 96 43 l40 42 147 0 147 0
0 785 0 785 -1317 0 c-1165 0 -1318 -2 -1318 -15z m680 -155 l0 -140 -305 0
-305 0 0 140 0 140 305 0 305 0 0 -140z m620 0 l0 -140 -295 0 -295 0 0 140 0
140 295 0 295 0 0 -140z m660 0 l0 -140 -315 0 -315 0 0 140 0 140 315 0 315
0 0 -140z m640 0 l0 -140 -304 0 c-268 0 -305 2 -310 16 -8 20 -8 228 0 248 5
14 42 16 310 16 l304 0 0 -140z m-1920 -310 l0 -140 -305 0 -305 0 0 140 0
140 305 0 305 0 0 -140z m620 0 l0 -140 -292 2 -293 3 -3 138 -3 137 296 0
295 0 0 -140z m658 3 l-3 -138 -312 -3 -313 -2 0 140 0 140 315 0 316 0 -3
-137z m642 -3 l0 -140 -304 0 c-268 0 -305 2 -310 16 -8 20 -8 228 0 248 5 14
42 16 310 16 l304 0 0 -140z m-1920 -300 l0 -140 -305 0 -305 0 0 140 0 140
305 0 305 0 0 -140z m620 0 l0 -140 -89 0 -89 0 -6 33 c-4 19 -21 48 -42 68
-31 30 -41 34 -89 34 -48 0 -58 -4 -89 -34 -21 -20 -38 -49 -42 -68 l-6 -33
-69 0 -69 0 0 133 c0 74 3 137 7 140 3 4 136 7 295 7 l288 0 0 -140z m658 -2
l3 -138 -316 0 -315 0 0 140 0 140 313 -2 312 -3 3 -137z m642 2 l0 -140 -307
2 -308 3 -3 115 c-1 63 0 125 3 138 l5 22 305 0 305 0 0 -140z m-1590 -140 c0
-64 -3 -80 -15 -80 -12 0 -15 13 -15 56 0 51 -2 55 -20 49 -26 -8 -25 4 3 32
40 39 47 30 47 -57z m-330 -170 l0 -140 -305 0 -305 0 0 140 0 140 305 0 305
0 0 -140z m179 118 c5 -13 23 -36 41 -53 27 -26 39 -30 85 -30 46 0 58 4 85
30 18 17 36 40 41 53 8 21 14 22 99 22 l90 0 0 -140 0 -140 -295 0 -295 0 0
140 0 140 70 0 c64 0 71 -2 79 -22z m1101 -118 l0 -140 -114 0 -113 0 -6 38
c-5 25 -18 49 -42 72 -32 31 -42 35 -90 35 -48 0 -58 -4 -90 -35 -24 -23 -37
-47 -42 -72 l-6 -38 -63 0 -64 0 0 140 0 140 315 0 315 0 0 -140z m640 0 l0
-140 -304 0 c-268 0 -305 2 -310 16 -8 20 -8 228 0 248 5 14 42 16 310 16
l304 0 0 -140z m-960 -69 c15 -30 13 -38 -26 -81 l-36 -40 36 0 c20 0 36 -4
36 -10 0 -5 -25 -10 -55 -10 -33 0 -55 4 -55 11 0 6 18 28 40 50 22 22 40 46
40 55 0 22 -31 30 -45 11 -13 -18 -35 -23 -35 -8 0 38 81 56 100 22z m-960
-241 l0 -140 -305 0 -305 0 0 140 0 140 305 0 305 0 0 -140z m620 0 l0 -140
-295 0 -295 0 0 140 0 140 295 0 295 0 0 -140z m170 127 c0 -7 16 -29 36 -48
31 -30 41 -34 89 -34 48 0 58 4 89 34 20 19 36 41 36 48 0 10 28 13 120 13
l120 0 0 -140 0 -140 -315 0 -315 0 0 140 0 140 70 0 c51 0 70 -4 70 -13z
m1130 -127 l0 -140 -129 0 -128 0 -6 38 c-5 25 -18 49 -42 72 -32 31 -42 35
-90 35 -48 0 -58 -4 -90 -35 -24 -23 -37 -47 -42 -72 -5 -36 -7 -38 -43 -38
-25 0 -40 5 -44 16 -8 20 -8 228 0 248 5 14 42 16 310 16 l304 0 0 -140z
m-360 -55 c7 -8 10 -26 8 -40 -3 -14 -1 -28 3 -31 13 -8 11 -48 -3 -62 -20
-20 -76 -15 -88 8 -8 15 -8 20 3 20 7 0 18 -5 24 -11 16 -16 43 -3 43 21 0 13
-7 20 -20 20 -26 0 -25 8 3 30 17 15 19 21 10 31 -10 10 -18 10 -38 -1 -30
-16 -42 -8 -20 14 21 20 59 21 75 1z"/>
<path d="M378 323 c-19 -22 -108 -175 -108 -185 0 -5 29 -8 65 -8 l65 0 0 -35
c0 -24 5 -35 15 -35 10 0 15 11 15 35 0 28 4 35 20 35 11 0 20 5 20 10 0 6 -9
10 -20 10 -18 0 -20 8 -22 92 -2 75 -6 93 -19 96 -8 1 -22 -5 -31 -15z m19
-170 c-3 -2 -25 -3 -51 -1 l-45 3 47 80 47 80 3 -79 c2 -43 1 -80 -1 -83z"/>
</g>
</svg>
