
<svg version="1.0" xmlns="http://www.w3.org/2000/svg"
 width="198.000000pt" height="221.000000pt" viewBox="0 0 198.000000 221.000000"
 preserveAspectRatio="xMidYMid meet">

<g transform="translate(0.000000,221.000000) scale(0.100000,-0.100000)"
fill="#000000" stroke="none">
<path d="M283 2151 c-18 -12 -37 -35 -44 -55 l-13 -36 -113 0 c-94 0 -113 -3
-113 -15 0 -8 7 -15 15 -15 13 0 15 -22 15 -135 0 -111 -3 -137 -15 -141 -8
-4 -15 -12 -15 -20 0 -8 7 -14 15 -14 13 0 15 -22 15 -135 0 -117 -2 -135 -17
-145 -17 -10 -17 -10 0 -20 15 -10 17 -28 17 -145 0 -113 -2 -135 -15 -135
-19 0 -19 -26 0 -34 22 -8 22 -276 0 -276 -8 0 -15 -7 -15 -15 0 -8 7 -15 15
-15 13 0 15 -22 15 -140 0 -118 -2 -140 -15 -140 -8 0 -15 -7 -15 -15 0 -12
19 -15 115 -15 109 0 115 -1 115 -20 0 -53 57 -110 110 -110 53 0 110 57 110
110 0 20 1 20 763 20 l762 0 0 785 0 785 -760 0 -761 0 -13 36 c-14 39 -62 74
-101 74 -14 0 -39 -9 -57 -19z m-53 -261 l0 -141 -88 3 -87 3 -3 138 -3 137
91 0 90 0 0 -140z m410 0 l0 -140 -95 0 -95 0 0 140 0 140 95 0 95 0 0 -140z
m660 0 l0 -140 -110 0 c-107 0 -110 1 -116 24 -3 13 -21 39 -40 57 -31 30 -41
34 -89 34 -48 0 -58 -4 -89 -34 -19 -18 -37 -44 -40 -57 -6 -22 -11 -24 -76
-24 l-70 0 0 140 0 140 315 0 315 0 0 -140z m640 0 l0 -140 -305 0 -305 0 0
140 0 140 305 0 305 0 0 -140z m-950 -89 c15 -30 13 -38 -26 -81 l-36 -40 36
0 c20 0 36 -4 36 -10 0 -5 -25 -10 -55 -10 -34 0 -55 4 -55 11 0 6 18 28 40
48 22 20 40 44 40 54 0 26 -30 34 -46 13 -19 -27 -38 -16 -19 12 21 28 70 30
85 3z m-760 -221 l0 -141 -88 3 -87 3 -3 138 -3 137 91 0 90 0 0 -140z m410 0
l0 -140 -95 0 -95 0 0 140 0 140 95 0 95 0 0 -140z m176 116 c3 -13 21 -39 40
-57 31 -30 41 -34 89 -34 48 0 58 4 89 34 19 18 37 44 40 57 6 23 9 24 116 24
l110 0 0 -140 0 -140 -315 0 -315 0 0 140 0 140 70 0 c65 0 70 -2 76 -24z
m1124 -116 l0 -140 -82 0 -83 1 -20 42 c-11 23 -35 52 -54 64 -69 46 -157 17
-196 -64 l-20 -42 -77 -1 -78 0 0 140 0 140 305 0 305 0 0 -140z m-280 -119
c0 -30 5 -52 13 -55 10 -5 10 -7 0 -12 -7 -3 -13 -14 -13 -25 0 -10 -4 -19
-10 -19 -5 0 -10 9 -10 20 0 16 -7 20 -35 20 -19 0 -35 5 -35 11 0 15 69 109
81 109 5 0 9 -22 9 -49z m-1430 -181 l0 -140 -90 0 -90 0 0 133 c0 74 3 137 7
140 3 4 44 7 90 7 l83 0 0 -140z m410 0 l0 -140 -95 0 -95 0 0 140 0 140 95 0
95 0 0 -140z m660 0 l0 -140 -315 0 -315 0 0 140 0 140 315 0 315 0 0 -140z
m205 97 c11 -23 35 -52 54 -64 69 -46 157 -17 196 64 l20 42 83 1 82 0 0 -140
0 -140 -82 0 -83 1 -20 42 c-11 23 -35 52 -54 64 -69 46 -157 17 -196 -64
l-20 -42 -77 -1 -78 0 0 140 0 140 78 0 77 -1 20 -42z m165 -187 c7 -14 8 -26
0 -39 -7 -13 -7 -22 0 -26 14 -9 13 -48 -2 -63 -17 -17 -63 -15 -78 3 -17 21
-7 29 18 14 11 -7 27 -9 36 -6 24 9 16 41 -12 45 -27 4 -29 19 -2 27 11 3 20
13 20 21 0 20 -27 29 -45 14 -20 -17 -32 -5 -15 15 18 22 67 19 80 -5z m-1440
-220 l0 -140 -90 0 -90 0 0 133 c0 74 3 137 7 140 3 4 44 7 90 7 l83 0 0 -140z
m410 0 l0 -140 -95 0 -95 0 0 140 0 140 95 0 95 0 0 -140z m660 0 l0 -140
-315 0 -315 0 0 140 0 140 315 0 315 0 0 -140z m205 103 c58 -108 192 -108
250 0 l20 37 83 0 82 0 0 -140 0 -140 -305 0 -305 0 0 140 0 140 78 0 77 0 20
-37z m-1275 -413 l0 -140 -90 0 -90 0 0 140 0 140 90 0 90 0 0 -140z m410 0
l0 -140 -95 0 -95 0 0 140 0 140 95 0 95 0 0 -140z m660 0 l0 -140 -315 0
-315 0 0 140 0 140 315 0 315 0 0 -140z m640 0 l0 -140 -305 0 -305 0 0 140 0
140 305 0 305 0 0 -140z"/>
<path d="M1618 1445 c-23 -30 -22 -35 2 -35 16 0 20 7 20 30 0 36 0 36 -22 5z"/>
<path d="M320 240 c-20 -20 -19 -40 2 -40 6 0 16 7 23 17 15 20 45 11 45 -15
0 -10 -14 -31 -31 -48 -27 -26 -59 -73 -59 -89 0 -3 29 -5 65 -5 51 0 65 3 65
15 0 11 -11 15 -42 15 l-42 0 36 38 c48 48 57 83 29 111 -27 27 -65 27 -91 1z"/>
</g>
</svg>
