<svg width="43" height="31" viewBox="0 0 43 31" fill="none" xmlns="http://www.w3.org/2000/svg">
<path d="M3.15886 2.90137L3.36128 3.31145L3.81381 3.37713L3.48634 3.69639L3.56362 4.14709L3.15886 3.93427L2.7541 4.14709L2.83138 3.69639L2.50391 3.37713L2.95652 3.31145L3.15886 2.90137Z" fill="#F0DCFF"/>
<path d="M4.90495 2.90137L5.10738 3.31145L5.55991 3.37713L5.23243 3.69639L5.30971 4.14709L4.90495 3.93427L4.50019 4.14709L4.57748 3.69639L4.25 3.37713L4.70262 3.31145L4.90495 2.90137Z" fill="#F0DCFF"/>
<path d="M6.65105 2.90137L6.85347 3.31145L7.306 3.37713L6.97852 3.69639L7.05581 4.14709L6.65105 3.93427L6.24629 4.14709L6.32357 3.69639L5.99609 3.37713L6.44871 3.31145L6.65105 2.90137Z" fill="#F0DCFF"/>
<path d="M8.39714 2.90137L8.59956 3.31145L9.05209 3.37713L8.72462 3.69639L8.8019 4.14709L8.39714 3.93427L7.99238 4.14709L8.06966 3.69639L7.74219 3.37713L8.1948 3.31145L8.39714 2.90137Z" fill="#F0DCFF"/>
<path d="M10.1432 2.90137L10.3457 3.31145L10.7982 3.37713L10.4707 3.69639L10.548 4.14709L10.1432 3.93427L9.73847 4.14709L9.81576 3.69639L9.48828 3.37713L9.9409 3.31145L10.1432 2.90137Z" fill="#F0DCFF"/>
<path d="M11.8932 2.90137L12.0957 3.31145L12.5482 3.37713L12.2207 3.69639L12.298 4.14709L11.8932 3.93427L11.4885 4.14709L11.5658 3.69639L11.2383 3.37713L11.6909 3.31145L11.8932 2.90137Z" fill="#F0DCFF"/>
<path d="M13.6393 2.90137L13.8418 3.31145L14.2943 3.37713L13.9668 3.69639L14.0441 4.14709L13.6393 3.93427L13.2346 4.14709L13.3119 3.69639L12.9844 3.37713L13.437 3.31145L13.6393 2.90137Z" fill="#F0DCFF"/>
<path d="M15.3854 2.90137L15.5878 3.31145L16.0404 3.37713L15.7129 3.69639L15.7902 4.14709L15.3854 3.93427L14.9807 4.14709L15.0579 3.69639L14.7305 3.37713L15.1831 3.31145L15.3854 2.90137Z" fill="#F0DCFF"/>
<path d="M3.15886 4.64795L3.36128 5.05804L3.81381 5.12371L3.48634 5.44297L3.56362 5.89367L3.15886 5.68085L2.7541 5.89367L2.83138 5.44297L2.50391 5.12371L2.95652 5.05804L3.15886 4.64795Z" fill="#F0DCFF"/>
<path d="M4.90495 4.64795L5.10738 5.05804L5.55991 5.12371L5.23243 5.44297L5.30971 5.89367L4.90495 5.68085L4.50019 5.89367L4.57748 5.44297L4.25 5.12371L4.70262 5.05804L4.90495 4.64795Z" fill="#F0DCFF"/>
<path d="M6.65105 4.64795L6.85347 5.05804L7.306 5.12371L6.97852 5.44297L7.05581 5.89367L6.65105 5.68085L6.24629 5.89367L6.32357 5.44297L5.99609 5.12371L6.44871 5.05804L6.65105 4.64795Z" fill="#F0DCFF"/>
<path d="M8.39714 4.64795L8.59956 5.05804L9.05209 5.12371L8.72462 5.44297L8.8019 5.89367L8.39714 5.68085L7.99238 5.89367L8.06966 5.44297L7.74219 5.12371L8.1948 5.05804L8.39714 4.64795Z" fill="#F0DCFF"/>
<path d="M10.1432 4.64795L10.3457 5.05804L10.7982 5.12371L10.4707 5.44297L10.548 5.89367L10.1432 5.68085L9.73847 5.89367L9.81576 5.44297L9.48828 5.12371L9.9409 5.05804L10.1432 4.64795Z" fill="#F0DCFF"/>
<path d="M11.8932 4.64795L12.0957 5.05804L12.5482 5.12371L12.2207 5.44297L12.298 5.89367L11.8932 5.68085L11.4885 5.89367L11.5658 5.44297L11.2383 5.12371L11.6909 5.05804L11.8932 4.64795Z" fill="#F0DCFF"/>
<path d="M13.6393 4.64795L13.8418 5.05804L14.2943 5.12371L13.9668 5.44297L14.0441 5.89367L13.6393 5.68085L13.2346 5.89367L13.3119 5.44297L12.9844 5.12371L13.437 5.05804L13.6393 4.64795Z" fill="#F0DCFF"/>
<path d="M15.3854 4.64795L15.5878 5.05804L16.0404 5.12371L15.7129 5.44297L15.7902 5.89367L15.3854 5.68085L14.9807 5.89367L15.0579 5.44297L14.7305 5.12371L15.1831 5.05804L15.3854 4.64795Z" fill="#F0DCFF"/>
<path d="M3.15886 6.39453L3.36128 6.80462L3.81381 6.87029L3.48634 7.18956L3.56362 7.64025L3.15886 7.42743L2.7541 7.64025L2.83138 7.18956L2.50391 6.87029L2.95652 6.80462L3.15886 6.39453Z" fill="#F0DCFF"/>
<path d="M4.90495 6.39453L5.10738 6.80462L5.55991 6.87029L5.23243 7.18956L5.30971 7.64025L4.90495 7.42743L4.50019 7.64025L4.57748 7.18956L4.25 6.87029L4.70262 6.80462L4.90495 6.39453Z" fill="#F0DCFF"/>
<path d="M6.65105 6.39453L6.85347 6.80462L7.306 6.87029L6.97852 7.18956L7.05581 7.64025L6.65105 7.42743L6.24629 7.64025L6.32357 7.18956L5.99609 6.87029L6.44871 6.80462L6.65105 6.39453Z" fill="#F0DCFF"/>
<path d="M8.39714 6.39453L8.59956 6.80462L9.05209 6.87029L8.72462 7.18956L8.8019 7.64025L8.39714 7.42743L7.99238 7.64025L8.06966 7.18956L7.74219 6.87029L8.1948 6.80462L8.39714 6.39453Z" fill="#F0DCFF"/>
<path d="M10.1432 6.39453L10.3457 6.80462L10.7982 6.87029L10.4707 7.18956L10.548 7.64025L10.1432 7.42743L9.73847 7.64025L9.81576 7.18956L9.48828 6.87029L9.9409 6.80462L10.1432 6.39453Z" fill="#F0DCFF"/>
<path d="M11.8932 6.39453L12.0957 6.80462L12.5482 6.87029L12.2207 7.18956L12.298 7.64025L11.8932 7.42743L11.4885 7.64025L11.5658 7.18956L11.2383 6.87029L11.6909 6.80462L11.8932 6.39453Z" fill="#F0DCFF"/>
<path d="M13.6393 6.39453L13.8418 6.80462L14.2943 6.87029L13.9668 7.18956L14.0441 7.64025L13.6393 7.42743L13.2346 7.64025L13.3119 7.18956L12.9844 6.87029L13.437 6.80462L13.6393 6.39453Z" fill="#F0DCFF"/>
<path d="M15.3854 6.39453L15.5878 6.80462L16.0404 6.87029L15.7129 7.18956L15.7902 7.64025L15.3854 7.42743L14.9807 7.64025L15.0579 7.18956L14.7305 6.87029L15.1831 6.80462L15.3854 6.39453Z" fill="#F0DCFF"/>
<path d="M3.15886 8.14087L3.36128 8.55096L3.81381 8.61663L3.48634 8.93589L3.56362 9.38659L3.15886 9.17377L2.7541 9.38659L2.83138 8.93589L2.50391 8.61663L2.95652 8.55096L3.15886 8.14087Z" fill="#F0DCFF"/>
<path d="M4.90495 8.14087L5.10738 8.55096L5.55991 8.61663L5.23243 8.93589L5.30971 9.38659L4.90495 9.17377L4.50019 9.38659L4.57748 8.93589L4.25 8.61663L4.70262 8.55096L4.90495 8.14087Z" fill="#F0DCFF"/>
<path d="M6.65105 8.14087L6.85347 8.55096L7.306 8.61663L6.97852 8.93589L7.05581 9.38659L6.65105 9.17377L6.24629 9.38659L6.32357 8.93589L5.99609 8.61663L6.44871 8.55096L6.65105 8.14087Z" fill="#F0DCFF"/>
<path d="M8.39714 8.14087L8.59956 8.55096L9.05209 8.61663L8.72462 8.93589L8.8019 9.38659L8.39714 9.17377L7.99238 9.38659L8.06966 8.93589L7.74219 8.61663L8.1948 8.55096L8.39714 8.14087Z" fill="#F0DCFF"/>
<path d="M10.1432 8.14087L10.3457 8.55096L10.7982 8.61663L10.4707 8.93589L10.548 9.38659L10.1432 9.17377L9.73847 9.38659L9.81576 8.93589L9.48828 8.61663L9.9409 8.55096L10.1432 8.14087Z" fill="#F0DCFF"/>
<path d="M11.8932 8.14087L12.0957 8.55096L12.5482 8.61663L12.2207 8.93589L12.298 9.38659L11.8932 9.17377L11.4885 9.38659L11.5658 8.93589L11.2383 8.61663L11.6909 8.55096L11.8932 8.14087Z" fill="#F0DCFF"/>
<path d="M13.6393 8.14087L13.8418 8.55096L14.2943 8.61663L13.9668 8.93589L14.0441 9.38659L13.6393 9.17377L13.2346 9.38659L13.3119 8.93589L12.9844 8.61663L13.437 8.55096L13.6393 8.14087Z" fill="#F0DCFF"/>
<path d="M15.3854 8.14087L15.5878 8.55096L16.0404 8.61663L15.7129 8.93589L15.7902 9.38659L15.3854 9.17377L14.9807 9.38659L15.0579 8.93589L14.7305 8.61663L15.1831 8.55096L15.3854 8.14087Z" fill="#F0DCFF"/>
<path d="M3.15886 9.88745L3.36128 10.2975L3.81381 10.3632L3.48634 10.6825L3.56362 11.1332L3.15886 10.9204L2.7541 11.1332L2.83138 10.6825L2.50391 10.3632L2.95652 10.2975L3.15886 9.88745Z" fill="#F0DCFF"/>
<path d="M4.90495 9.88745L5.10738 10.2975L5.55991 10.3632L5.23243 10.6825L5.30971 11.1332L4.90495 10.9204L4.50019 11.1332L4.57748 10.6825L4.25 10.3632L4.70262 10.2975L4.90495 9.88745Z" fill="#F0DCFF"/>
<path d="M6.65105 9.88745L6.85347 10.2975L7.306 10.3632L6.97852 10.6825L7.05581 11.1332L6.65105 10.9204L6.24629 11.1332L6.32357 10.6825L5.99609 10.3632L6.44871 10.2975L6.65105 9.88745Z" fill="#F0DCFF"/>
<path d="M8.39714 9.88745L8.59956 10.2975L9.05209 10.3632L8.72462 10.6825L8.8019 11.1332L8.39714 10.9204L7.99238 11.1332L8.06966 10.6825L7.74219 10.3632L8.1948 10.2975L8.39714 9.88745Z" fill="#F0DCFF"/>
<path d="M10.1432 9.88745L10.3457 10.2975L10.7982 10.3632L10.4707 10.6825L10.548 11.1332L10.1432 10.9204L9.73847 11.1332L9.81576 10.6825L9.48828 10.3632L9.9409 10.2975L10.1432 9.88745Z" fill="#F0DCFF"/>
<path d="M11.8932 9.88745L12.0957 10.2975L12.5482 10.3632L12.2207 10.6825L12.298 11.1332L11.8932 10.9204L11.4885 11.1332L11.5658 10.6825L11.2383 10.3632L11.6909 10.2975L11.8932 9.88745Z" fill="#F0DCFF"/>
<path d="M13.6393 9.88745L13.8418 10.2975L14.2943 10.3632L13.9668 10.6825L14.0441 11.1332L13.6393 10.9204L13.2346 11.1332L13.3119 10.6825L12.9844 10.3632L13.437 10.2975L13.6393 9.88745Z" fill="#F0DCFF"/>
<path d="M15.3854 9.88745L15.5878 10.2975L16.0404 10.3632L15.7129 10.6825L15.7902 11.1332L15.3854 10.9204L14.9807 11.1332L15.0579 10.6825L14.7305 10.3632L15.1831 10.2975L15.3854 9.88745Z" fill="#F0DCFF"/>
<path d="M3.15886 11.634L3.36128 12.0441L3.81381 12.1098L3.48634 12.4291L3.56362 12.8798L3.15886 12.6669L2.7541 12.8798L2.83138 12.4291L2.50391 12.1098L2.95652 12.0441L3.15886 11.634Z" fill="#F0DCFF"/>
<path d="M4.90495 11.634L5.10738 12.0441L5.55991 12.1098L5.23243 12.4291L5.30971 12.8798L4.90495 12.6669L4.50019 12.8798L4.57748 12.4291L4.25 12.1098L4.70262 12.0441L4.90495 11.634Z" fill="#F0DCFF"/>
<path d="M6.65105 11.634L6.85347 12.0441L7.306 12.1098L6.97852 12.4291L7.05581 12.8798L6.65105 12.6669L6.24629 12.8798L6.32357 12.4291L5.99609 12.1098L6.44871 12.0441L6.65105 11.634Z" fill="#F0DCFF"/>
<path d="M8.39714 11.634L8.59956 12.0441L9.05209 12.1098L8.72462 12.4291L8.8019 12.8798L8.39714 12.6669L7.99238 12.8798L8.06966 12.4291L7.74219 12.1098L8.1948 12.0441L8.39714 11.634Z" fill="#F0DCFF"/>
<path d="M10.1432 11.634L10.3457 12.0441L10.7982 12.1098L10.4707 12.4291L10.548 12.8798L10.1432 12.6669L9.73847 12.8798L9.81576 12.4291L9.48828 12.1098L9.9409 12.0441L10.1432 11.634Z" fill="#F0DCFF"/>
<path d="M11.8932 11.634L12.0957 12.0441L12.5482 12.1098L12.2207 12.4291L12.298 12.8798L11.8932 12.6669L11.4885 12.8798L11.5658 12.4291L11.2383 12.1098L11.6909 12.0441L11.8932 11.634Z" fill="#F0DCFF"/>
<path d="M13.6393 11.634L13.8418 12.0441L14.2943 12.1098L13.9668 12.4291L14.0441 12.8798L13.6393 12.6669L13.2346 12.8798L13.3119 12.4291L12.9844 12.1098L13.437 12.0441L13.6393 11.634Z" fill="#F0DCFF"/>
<path d="M15.3854 11.634L15.5878 12.0441L16.0404 12.1098L15.7129 12.4291L15.7902 12.8798L15.3854 12.6669L14.9807 12.8798L15.0579 12.4291L14.7305 12.1098L15.1831 12.0441L15.3854 11.634Z" fill="#F0DCFF"/>
<path d="M41.5828 30.5955H1.41233C0.930026 30.5955 0.539062 30.2044 0.539062 29.7222V1.77757C0.539062 1.29526 0.930026 0.904297 1.41233 0.904297H41.5828C42.065 0.904297 42.456 1.29526 42.456 1.77757V29.7222C42.456 30.2045 42.065 30.5955 41.5828 30.5955ZM2.28552 28.8489H40.7094V2.65084H2.28552V28.8489Z" fill="#F0DCFF"/>
<path d="M17.1312 14.8769H1.41233C0.930026 14.8769 0.539062 14.4859 0.539062 14.0036V1.77781C0.539062 1.2955 0.930026 0.904541 1.41233 0.904541H17.1312C17.6135 0.904541 18.0045 1.2955 18.0045 1.77781V14.0036C18.0045 14.4858 17.6135 14.8769 17.1312 14.8769ZM2.2856 13.1303H16.2579V2.65108H2.2856V13.1303Z" fill="#F0DCFF"/>
<path d="M41.5827 8.76381H17.1311C16.6488 8.76381 16.2578 8.37285 16.2578 7.89054V5.27073C16.2578 4.78842 16.6488 4.39746 17.1311 4.39746H41.5827C42.0649 4.39746 42.4559 4.78842 42.4559 5.27073V7.89054C42.4559 8.37276 42.0649 8.76381 41.5827 8.76381ZM18.0043 7.01727H40.7093V6.144H18.0043V7.01727Z" fill="#F0DCFF"/>
<path d="M41.5827 14.8766H17.1311C16.6488 14.8766 16.2578 14.4856 16.2578 14.0033V11.3835C16.2578 10.9012 16.6488 10.5103 17.1311 10.5103H41.5827C42.0649 10.5103 42.4559 10.9012 42.4559 11.3835V14.0033C42.4559 14.4856 42.0649 14.8766 41.5827 14.8766ZM18.0043 13.1301H40.7093V12.2568H18.0043V13.1301Z" fill="#F0DCFF"/>
<path d="M41.5828 20.9894H1.41233C0.930026 20.9894 0.539062 20.5983 0.539062 20.1161V17.4963C0.539062 17.0141 0.930026 16.623 1.41233 16.623H41.5828C42.065 16.623 42.456 17.0141 42.456 17.4963V20.1161C42.456 20.5984 42.065 20.9894 41.5828 20.9894ZM2.28552 19.2429H40.7094V18.3696H2.28552V19.2429Z" fill="#F0DCFF"/>
<path d="M41.5828 27.1024H1.41233C0.930026 27.1024 0.539062 26.7114 0.539062 26.2292V23.6094C0.539062 23.1271 0.930026 22.7361 1.41233 22.7361H41.5828C42.065 22.7361 42.456 23.1271 42.456 23.6094V26.2292C42.456 26.7115 42.065 27.1024 41.5828 27.1024ZM2.28552 25.3559H40.7094V24.4826H2.28552V25.3559Z" fill="#F0DCFF"/>
</svg>
