<?xml version="1.0" standalone="no"?>
<!DOCTYPE svg PUBLIC "-//W3C//DTD SVG 20010904//EN"
 "http://www.w3.org/TR/2001/REC-SVG-20010904/DTD/svg10.dtd">
<svg version="1.0" xmlns="http://www.w3.org/2000/svg"
 width="198.000000pt" height="171.000000pt" viewBox="0 0 198.000000 171.000000"
 preserveAspectRatio="xMidYMid meet">

<g transform="translate(0.000000,171.000000) scale(0.100000,-0.100000)"
fill="#000000" stroke="none">
<path d="M30 881 l0 -791 975 0 c860 0 975 2 975 15 0 8 -4 15 -10 15 -6 0
-10 53 -10 140 0 87 4 140 10 140 6 0 10 7 10 15 0 8 -4 15 -10 15 -6 0 -10
53 -10 140 0 87 4 140 10 140 6 0 10 7 10 15 0 8 -4 15 -10 15 -16 0 -13 277
3 284 10 5 10 7 0 12 -16 7 -19 284 -3 284 6 0 10 7 10 15 0 8 -4 15 -10 15
-6 0 -10 53 -10 140 0 87 4 140 10 140 6 0 10 7 10 15 0 13 -111 15 -937 15
-516 0 -955 3 -975 6 l-38 7 0 -792z m628 612 l-3 -138 -287 -3 -288 -2 0 140
0 140 290 0 291 0 -3 -137z m612 -3 l0 -140 -292 2 -293 3 -3 138 -3 137 296
0 295 0 0 -140z m660 0 l0 -140 -315 0 -315 0 0 140 0 140 315 0 315 0 0 -140z
m-1272 -307 l-3 -138 -287 -3 -288 -2 0 140 0 140 290 0 291 0 -3 -137z m612
-3 l0 -140 -292 2 -293 3 -3 138 -3 137 296 0 295 0 0 -140z m660 0 l0 -140
-315 0 -315 0 0 140 0 140 315 0 315 0 0 -140z m-1272 -302 l3 -138 -291 0
-290 0 0 140 0 140 288 -2 287 -3 3 -137z m612 2 l0 -140 -84 0 -84 0 -7 28
c-3 16 -22 44 -41 63 -31 30 -41 34 -89 34 -48 0 -58 -4 -89 -34 -19 -19 -38
-47 -41 -63 -7 -28 -7 -28 -81 -28 l-74 0 0 133 c0 74 3 137 7 140 3 4 136 7
295 7 l288 0 0 -140z m660 0 l0 -140 -315 0 -315 0 0 140 0 140 315 0 315 0 0
-140z m-920 -89 c15 -30 13 -38 -26 -81 l-36 -40 36 0 c20 0 36 -4 36 -10 0
-5 -25 -10 -55 -10 -33 0 -55 4 -55 11 0 6 18 28 40 50 22 22 40 46 40 55 0
22 -31 30 -45 11 -13 -18 -35 -23 -35 -8 0 38 81 56 100 22z m-352 -223 l3
-138 -291 0 -290 0 0 140 0 140 288 -2 287 -3 3 -137z m178 118 c3 -13 21 -39
40 -57 31 -30 41 -34 89 -34 48 0 58 4 89 34 19 18 37 44 40 57 6 23 10 24 91
24 l85 0 0 -140 0 -140 -84 0 -84 0 -7 28 c-3 16 -22 44 -41 63 -31 30 -41 34
-89 34 -48 0 -58 -4 -89 -34 -19 -19 -38 -47 -41 -63 -7 -28 -7 -28 -81 -28
l-74 0 0 133 c0 74 3 137 7 140 3 4 37 7 74 7 64 0 69 -2 75 -24z m1094 -116
l0 -140 -315 0 -315 0 0 140 0 140 315 0 315 0 0 -140z m-940 -140 c0 -64 -3
-80 -15 -80 -12 0 -15 13 -15 56 0 51 -2 55 -20 49 -11 -3 -20 -3 -20 1 0 9
51 53 63 54 4 0 7 -36 7 -80z m-330 -170 l0 -140 -290 0 -290 0 0 140 0 140
290 0 290 0 0 -140z m179 118 c5 -13 23 -36 41 -53 27 -26 39 -30 85 -30 46 0
58 4 85 30 18 17 36 40 41 53 8 20 15 22 94 22 l85 0 0 -140 0 -140 -295 0
-295 0 0 140 0 140 75 0 c69 0 76 -2 84 -22z m1091 -118 l0 -140 -315 0 -315
0 0 140 0 140 315 0 315 0 0 -140z"/>
</g>
</svg>
