<?xml version="1.0" standalone="no"?>
<!DOCTYPE svg PUBLIC "-//W3C//DTD SVG 20010904//EN"
 "http://www.w3.org/TR/2001/REC-SVG-20010904/DTD/svg10.dtd">
<svg version="1.0" xmlns="http://www.w3.org/2000/svg"
 width="204.000000pt" height="184.000000pt" viewBox="0 0 204.000000 184.000000"
 preserveAspectRatio="xMidYMid meet">

<g transform="translate(0.000000,184.000000) scale(0.100000,-0.100000)"
fill="#000000" stroke="none">
<path d="M1590 1763 c-24 -9 -71 -56 -81 -80 l-9 -23 -750 0 c-660 0 -750 -2
-750 -15 0 -8 9 -15 20 -15 19 0 20 -7 20 -136 0 -127 -1 -136 -20 -141 -26
-7 -26 -33 0 -33 19 0 20 -7 20 -136 0 -127 -1 -136 -20 -141 -26 -7 -26 -19
0 -26 19 -5 20 -14 20 -141 0 -129 -1 -136 -20 -136 -11 0 -20 -6 -20 -14 0
-7 9 -16 20 -19 19 -5 20 -14 20 -141 0 -129 -1 -136 -20 -136 -11 0 -20 -7
-20 -15 0 -8 9 -15 20 -15 19 0 20 -7 20 -140 0 -133 -1 -140 -20 -140 -11 0
-20 -7 -20 -15 0 -13 120 -15 1020 -15 900 0 1020 2 1020 15 0 10 -10 15 -30
15 l-30 0 0 140 0 140 30 0 c20 0 30 5 30 15 0 10 -10 15 -30 15 l-30 0 0 140
0 140 30 0 c20 0 30 5 30 15 0 10 -10 15 -30 15 l-31 0 3 138 3 137 28 3 c15
2 27 7 27 12 0 5 -12 10 -27 12 l-28 3 -3 138 -3 137 31 0 c20 0 30 5 30 15 0
10 -10 15 -30 15 l-30 0 0 140 0 140 30 0 c20 0 30 5 30 15 0 13 -21 15 -130
15 -126 0 -131 1 -139 23 -18 45 -67 80 -118 83 -26 2 -55 1 -63 -3z m80 -92
c0 -30 5 -52 13 -55 10 -5 10 -7 0 -12 -7 -3 -13 -14 -13 -25 0 -10 -4 -19
-10 -19 -5 0 -10 9 -10 20 0 16 -7 20 -35 20 -19 0 -35 5 -35 11 0 15 69 109
81 109 5 0 9 -22 9 -49z m-1020 -181 l0 -140 -292 2 -293 3 -3 138 -3 137 296
0 295 0 0 -140z m660 0 l0 -140 -315 0 -315 0 0 140 0 140 315 0 315 0 0 -140z
m195 112 c3 -16 22 -44 41 -63 32 -31 41 -34 94 -34 53 0 62 3 94 34 19 19 38
47 41 63 l7 28 84 0 84 0 0 -140 0 -140 -85 0 c-81 0 -85 1 -91 24 -3 13 -21
39 -40 57 -32 31 -41 34 -94 34 -53 0 -62 -3 -94 -34 -19 -18 -37 -44 -40 -57
-6 -23 -10 -24 -86 -24 l-80 0 0 140 0 140 79 0 c79 0 79 0 86 -28z m175 -202
c7 -14 8 -26 0 -39 -7 -13 -7 -22 0 -26 14 -9 13 -48 -2 -63 -17 -17 -63 -15
-78 3 -17 21 -7 29 18 14 11 -7 27 -9 36 -6 24 9 16 41 -12 45 -27 4 -29 19
-2 27 11 3 20 13 20 21 0 20 -27 29 -45 14 -20 -17 -32 -5 -15 15 18 22 67 19
80 -5z m-1030 -220 l0 -140 -292 2 -293 3 -3 138 -3 137 296 0 295 0 0 -140z
m660 0 l0 -140 -315 0 -315 0 0 140 0 140 315 0 315 0 0 -140z m196 116 c3
-13 21 -39 40 -57 32 -31 41 -34 94 -34 53 0 62 3 94 34 19 18 37 44 40 57 6
23 10 24 91 24 l85 0 0 -140 0 -140 -82 0 -83 1 -20 42 c-11 23 -35 52 -54 64
-69 46 -157 17 -196 -64 l-20 -42 -77 -1 -78 0 0 140 0 140 80 0 c76 0 80 -1
86 -24z m172 -198 c21 -21 13 -51 -25 -90 l-37 -38 37 0 c20 0 37 -4 37 -10 0
-5 -25 -10 -55 -10 -30 0 -55 2 -55 5 0 2 20 27 46 56 25 28 43 56 41 62 -6
19 -46 20 -53 3 -7 -19 -24 -21 -24 -3 0 33 62 51 88 25z m-1028 -218 l0 -140
-84 0 -84 0 -7 28 c-3 16 -22 44 -41 63 -31 30 -41 34 -89 34 -48 0 -58 -4
-89 -34 -19 -19 -38 -47 -41 -63 -7 -28 -7 -28 -81 -28 l-74 0 0 133 c0 74 3
137 7 140 3 4 136 7 295 7 l288 0 0 -140z m660 0 l0 -140 -315 0 -315 0 0 140
0 140 315 0 315 0 0 -140z m205 97 c54 -115 196 -115 250 0 l20 42 83 1 82 0
0 -140 0 -140 -305 0 -305 0 0 140 0 140 78 0 77 -1 20 -42z m-1125 -186 c15
-30 13 -38 -26 -81 l-36 -40 36 0 c20 0 36 -4 36 -10 0 -5 -25 -10 -55 -10
-33 0 -55 4 -55 11 0 6 18 28 40 50 22 22 40 46 40 55 0 22 -31 30 -45 11 -13
-18 -35 -23 -35 -8 0 38 81 56 100 22z m-174 -105 c3 -13 21 -39 40 -57 31
-30 41 -34 89 -34 48 0 58 4 89 34 19 18 37 44 40 57 6 23 10 24 91 24 l85 0
0 -140 0 -140 -84 0 -84 0 -7 28 c-3 16 -22 44 -41 63 -31 30 -41 34 -89 34
-48 0 -58 -4 -89 -34 -19 -19 -38 -47 -41 -63 -7 -28 -7 -28 -81 -28 l-74 0 0
133 c0 74 3 137 7 140 3 4 37 7 74 7 64 0 69 -2 75 -24z m1094 -116 l0 -140
-315 0 -315 0 0 140 0 140 315 0 315 0 0 -140z m640 0 l0 -140 -305 0 -305 0
0 140 0 140 305 0 305 0 0 -140z m-1580 -140 c0 -64 -3 -80 -15 -80 -12 0 -15
13 -15 56 0 51 -2 55 -20 49 -11 -3 -20 -3 -20 1 0 9 51 53 63 54 4 0 7 -36 7
-80z m-151 -52 c5 -13 23 -36 41 -53 27 -26 39 -30 85 -30 46 0 58 4 85 30 18
17 36 40 41 53 8 20 15 22 94 22 l85 0 0 -140 0 -140 -295 0 -295 0 0 140 0
140 75 0 c69 0 76 -2 84 -22z m1091 -118 l0 -140 -315 0 -315 0 0 140 0 140
315 0 315 0 0 -140z m640 0 l0 -140 -305 0 -305 0 0 140 0 140 305 0 305 0 0
-140z"/>
<path d="M1628 1655 c-23 -30 -22 -35 2 -35 16 0 20 7 20 30 0 36 0 36 -22 5z"/>
</g>
</svg>
