<?xml version="1.0" standalone="no"?>
<!DOCTYPE svg PUBLIC "-//W3C//DTD SVG 20010904//EN"
 "http://www.w3.org/TR/2001/REC-SVG-20010904/DTD/svg10.dtd">
<svg version="1.0" xmlns="http://www.w3.org/2000/svg"
 width="201.000000pt" height="218.000000pt" viewBox="0 0 201.000000 218.000000"
 preserveAspectRatio="xMidYMid meet">

<g transform="translate(0.000000,218.000000) scale(0.100000,-0.100000)"
fill="#000000" stroke="none">
<path d="M303 2141 c-18 -12 -37 -35 -44 -55 l-13 -36 -123 0 c-103 0 -123 -2
-123 -15 0 -8 5 -15 10 -15 6 0 10 -53 10 -140 0 -87 -4 -140 -10 -140 -5 0
-10 -7 -10 -15 0 -8 5 -15 10 -15 16 0 13 -277 -2 -284 -10 -5 -10 -7 0 -12
15 -7 18 -284 2 -284 -5 0 -10 -7 -10 -15 0 -8 5 -15 10 -15 6 0 10 -53 10
-140 0 -87 -4 -140 -10 -140 -5 0 -10 -7 -10 -15 0 -8 5 -15 10 -15 6 0 10
-53 10 -140 0 -87 -4 -140 -10 -140 -5 0 -10 -7 -10 -15 0 -13 21 -15 125 -15
119 0 125 -1 125 -20 0 -53 57 -110 110 -110 53 0 110 57 110 110 0 20 0 20
770 20 678 0 770 2 770 15 0 8 -9 15 -19 15 -27 0 -31 18 -31 140 0 122 4 140
31 140 10 0 19 7 19 15 0 8 -9 15 -19 15 -27 0 -31 18 -31 140 0 122 4 140 31
140 27 0 24 28 -3 32 -22 3 -23 7 -26 118 -3 135 1 160 28 160 11 0 20 5 20
10 0 6 -9 10 -19 10 -27 0 -31 18 -31 140 0 122 4 140 31 140 10 0 19 7 19 15
0 8 -9 15 -19 15 -27 0 -31 18 -31 140 0 122 4 140 31 140 10 0 19 7 19 15 0
13 -92 15 -768 15 l-768 0 -13 36 c-14 39 -62 74 -101 74 -14 0 -39 -9 -57
-19z m-53 -261 l0 -140 -100 0 -100 0 0 140 0 140 100 0 100 0 0 -140z m430 0
l0 -140 -105 0 -105 0 0 140 0 140 105 0 105 0 0 -140z m640 0 l0 -140 -304 0
c-268 0 -305 2 -310 16 -3 9 -6 64 -6 124 0 60 3 115 6 124 5 14 42 16 310 16
l304 0 0 -140z m620 0 l0 -140 -295 0 -295 0 0 140 0 140 295 0 295 0 0 -140z
m-1690 -310 l0 -140 -100 0 -100 0 0 140 0 140 100 0 100 0 0 -140z m428 3
l-3 -138 -102 -3 -103 -3 0 141 0 140 105 0 106 0 -3 -137z m642 -3 l0 -140
-304 0 c-268 0 -305 2 -310 16 -3 9 -6 64 -6 124 0 60 3 115 6 124 5 14 42 16
310 16 l304 0 0 -140z m618 3 l-3 -138 -292 -3 -293 -2 0 140 0 140 295 0 296
0 -3 -137z m-1688 -303 l0 -140 -100 0 -100 0 0 140 0 140 100 0 100 0 0 -140z
m428 -2 l3 -138 -106 0 -105 0 0 140 0 141 103 -3 102 -3 3 -137z m642 2 l0
-140 -129 0 -129 0 -6 33 c-4 19 -21 48 -42 68 -31 30 -41 34 -89 34 -48 0
-58 -4 -89 -34 -21 -20 -38 -49 -42 -68 -6 -33 -8 -34 -48 -31 l-41 3 -3 115
c-1 63 0 125 3 138 l5 22 305 0 305 0 0 -140z m618 -2 l3 -138 -296 0 -295 0
0 140 0 140 293 -2 292 -3 3 -137z m-968 -77 c15 -30 13 -38 -26 -81 l-36 -40
36 0 c20 0 36 -4 36 -10 0 -5 -25 -10 -55 -10 -34 0 -55 4 -55 11 0 6 18 28
40 48 22 20 40 44 40 54 0 26 -30 34 -46 13 -19 -27 -38 -16 -19 12 21 28 70
30 85 3z m-720 -231 l0 -140 -100 0 -100 0 0 140 0 140 100 0 100 0 0 -140z
m430 0 l0 -140 -105 0 -105 0 0 140 0 140 105 0 105 0 0 -140z m119 118 c5
-13 23 -36 41 -53 27 -26 39 -30 85 -30 46 0 58 4 85 30 18 17 36 40 41 53 8
21 13 22 139 22 l130 0 0 -140 0 -140 -304 0 c-268 0 -305 2 -310 16 -3 9 -6
64 -6 124 0 60 3 115 6 124 4 11 19 16 45 16 32 0 41 -4 48 -22z m1141 -118
l0 -140 -60 0 c-56 0 -60 2 -60 23 0 58 -76 127 -140 127 -64 0 -140 -69 -140
-127 0 -22 -3 -23 -95 -23 l-95 0 0 140 0 140 295 0 295 0 0 -140z m-220 -70
c7 -14 8 -26 0 -39 -7 -13 -7 -22 0 -26 14 -9 13 -48 -2 -63 -17 -17 -63 -15
-78 3 -17 21 -7 29 18 14 11 -7 27 -9 36 -6 24 9 16 41 -12 45 -27 4 -29 19
-2 27 11 3 20 13 20 21 0 20 -27 29 -45 14 -20 -17 -32 -5 -15 15 18 22 67 19
80 -5z m-1470 -240 l0 -140 -100 0 -100 0 0 140 0 140 100 0 100 0 0 -140z
m430 0 l0 -140 -105 0 -105 0 0 140 0 140 105 0 105 0 0 -140z m640 0 l0 -140
-304 0 c-268 0 -305 2 -310 16 -3 9 -6 64 -6 124 0 60 3 115 6 124 5 14 42 16
310 16 l304 0 0 -140z m242 110 c22 -39 74 -70 118 -70 44 0 96 31 118 70 16
28 21 30 80 30 l62 0 0 -140 0 -140 -295 0 -295 0 0 140 0 140 98 0 97 0 17
-30z"/>
<path d="M341 234 c-62 -78 18 -227 82 -156 37 41 5 122 -43 109 -15 -4 -20 0
-20 14 0 22 32 39 38 21 4 -14 42 -16 42 -3 0 18 -31 41 -55 41 -14 0 -32 -11
-44 -26z m64 -109 c0 -23 -4 -30 -20 -30 -21 0 -31 25 -21 51 11 28 41 12 41
-21z"/>
</g>
</svg>
