<?xml version="1.0" standalone="no"?>
<!DOCTYPE svg PUBLIC "-//W3C//DTD SVG 20010904//EN"
 "http://www.w3.org/TR/2001/REC-SVG-20010904/DTD/svg10.dtd">
<svg version="1.0" xmlns="http://www.w3.org/2000/svg"
 width="201.000000pt" height="219.000000pt" viewBox="0 0 201.000000 219.000000"
 preserveAspectRatio="xMidYMid meet">

<g transform="translate(0.000000,219.000000) scale(0.100000,-0.100000)"
fill="#000000" stroke="none">
<path d="M303 2121 c-18 -12 -37 -35 -44 -55 l-13 -36 -123 0 c-103 0 -123 -2
-123 -15 0 -8 7 -15 15 -15 13 0 15 -22 15 -140 0 -118 -2 -140 -15 -140 -8 0
-15 -7 -15 -15 0 -8 7 -15 15 -15 13 0 15 -22 15 -140 0 -118 -2 -140 -15
-140 -8 0 -15 -4 -15 -10 0 -5 7 -10 15 -10 13 0 15 -22 15 -140 0 -118 -2
-140 -15 -140 -8 0 -15 -7 -15 -15 0 -8 7 -15 15 -15 13 0 15 -22 15 -140 0
-118 -2 -140 -15 -140 -8 0 -15 -7 -15 -15 0 -8 7 -15 15 -15 13 0 15 -22 15
-140 0 -118 -2 -140 -15 -140 -8 0 -15 -7 -15 -15 0 -13 21 -15 125 -15 119 0
125 -1 125 -20 0 -53 57 -110 110 -110 53 0 110 57 110 110 0 20 0 20 770 20
678 0 770 2 770 15 0 8 -7 15 -15 15 -13 0 -15 22 -15 140 0 118 2 140 15 140
8 0 15 7 15 15 0 8 -7 15 -15 15 -13 0 -15 22 -15 140 0 118 2 140 15 140 8 0
15 7 15 15 0 8 -7 15 -15 15 -13 0 -15 22 -15 140 0 118 2 140 15 140 8 0 15
5 15 10 0 6 -7 10 -15 10 -13 0 -15 22 -15 140 0 118 2 140 15 140 8 0 15 7
15 15 0 8 -7 15 -15 15 -13 0 -15 22 -15 140 0 118 2 140 15 140 8 0 15 7 15
15 0 13 -92 15 -768 15 l-768 0 -13 36 c-14 39 -62 74 -101 74 -14 0 -39 -9
-57 -19z m-53 -261 l0 -140 -95 0 -95 0 0 140 0 140 95 0 95 0 0 -140z m400 0
l0 -140 -90 0 -90 0 0 140 0 140 90 0 90 0 0 -140z m658 3 l-3 -138 -82 -3
-81 -3 -7 29 c-3 16 -22 44 -41 63 -31 30 -41 34 -89 34 -48 0 -58 -4 -89 -34
-19 -19 -38 -47 -41 -63 l-7 -28 -93 0 c-75 0 -94 3 -99 16 -3 9 -6 64 -6 124
0 60 3 115 6 124 5 14 43 16 320 16 l315 0 -3 -137z m642 -3 l0 -140 -307 2
-308 3 -3 138 -3 137 311 0 310 0 0 -140z m-908 -85 c8 -19 8 -28 -2 -40 -7
-8 -8 -15 -2 -15 18 0 23 -33 7 -56 -18 -28 -65 -33 -85 -9 -17 21 -7 29 18
14 11 -7 27 -9 36 -6 22 9 20 38 -4 44 -24 6 -26 19 -5 27 23 8 19 46 -5 46
-11 0 -20 -4 -20 -10 0 -5 -7 -10 -15 -10 -18 0 -19 12 -3 28 22 22 67 14 80
-13z m-792 -225 l0 -140 -95 0 -95 0 0 140 0 140 95 0 95 0 0 -140z m398 3
l-3 -138 -87 -3 -88 -3 0 141 0 140 90 0 91 0 -3 -137z m231 115 c5 -13 23
-36 41 -53 27 -26 39 -30 85 -30 46 0 58 4 85 30 18 17 36 40 41 53 8 20 15
22 94 22 l86 0 -3 -137 -3 -138 -309 -3 c-241 -2 -311 1 -318 10 -9 15 -11
229 -2 252 5 13 24 16 100 16 89 0 95 -1 103 -22z m1071 -118 l0 -140 -99 0
-99 0 -6 33 c-4 19 -21 48 -42 68 -31 30 -41 34 -89 34 -48 0 -58 -4 -89 -34
-21 -20 -38 -49 -42 -68 l-6 -34 -72 3 -71 3 -3 138 -3 137 311 0 310 0 0
-140z m-300 -99 c0 -30 5 -52 13 -55 10 -5 10 -7 0 -12 -7 -3 -13 -14 -13 -25
0 -10 -7 -19 -15 -19 -8 0 -15 9 -15 20 0 15 -7 20 -29 20 -17 0 -32 4 -35 8
-7 12 65 112 81 112 9 0 13 -15 13 -49z m-1400 -201 l0 -140 -95 0 -95 0 0
140 0 140 95 0 95 0 0 -140z m398 -2 l3 -138 -91 0 -90 0 0 140 0 141 88 -3
87 -3 3 -137z m660 0 l3 -138 -85 0 -84 0 -6 33 c-4 19 -21 48 -42 68 -31 30
-41 34 -89 34 -48 0 -58 -4 -89 -34 -21 -20 -38 -49 -42 -68 l-6 -34 -97 3
-96 3 -3 115 c-1 63 0 125 3 138 l5 22 313 -2 312 -3 3 -137z m181 120 c5 -13
23 -36 41 -53 27 -26 39 -30 85 -30 46 0 58 4 85 30 18 17 36 40 41 53 8 21
14 22 109 22 l100 0 0 -140 0 -140 -310 0 -310 0 0 133 c0 74 3 137 7 140 3 4
37 7 75 7 62 0 69 -2 77 -22z m-451 -180 c23 -23 13 -59 -25 -94 l-37 -34 37
0 c20 0 37 -4 37 -10 0 -5 -25 -10 -55 -10 -30 0 -55 2 -55 5 0 3 21 28 46 55
29 31 44 55 40 65 -7 19 -42 20 -50 0 -7 -18 -26 -20 -26 -2 0 33 62 51 88 25z
m-788 -248 l0 -140 -95 0 -95 0 0 140 0 140 95 0 95 0 0 -140z m400 0 l0 -140
-90 0 -90 0 0 140 0 140 90 0 90 0 0 -140z m255 93 c42 -47 44 -48 100 -48 56
0 58 1 101 48 l43 48 78 -3 78 -3 3 -137 3 -138 -315 0 c-277 0 -315 2 -320
16 -3 9 -6 64 -6 124 0 60 3 115 6 124 5 13 23 16 96 16 l90 0 43 -47z m1045
-93 l0 -140 -310 0 -310 0 0 133 c0 74 3 137 7 140 3 4 143 7 310 7 l303 0 0
-140z m-1700 -310 l0 -140 -95 0 -95 0 0 140 0 140 95 0 95 0 0 -140z m400 0
l0 -140 -90 0 -90 0 0 140 0 140 90 0 90 0 0 -140z m660 0 l0 -140 -314 0
c-277 0 -315 2 -320 16 -3 9 -6 64 -6 124 0 60 3 115 6 124 5 14 43 16 320 16
l314 0 0 -140z m640 0 l0 -140 -310 0 -310 0 0 140 0 140 310 0 310 0 0 -140z"/>
<path d="M1596 1425 c-16 -24 -16 -25 4 -25 15 0 20 7 20 25 0 14 -2 25 -4 25
-2 0 -11 -11 -20 -25z"/>
<path d="M348 229 c-19 -11 -25 -64 -8 -74 6 -4 4 -15 -6 -30 -19 -30 -10 -62
21 -77 57 -26 114 27 82 76 -10 15 -13 27 -7 31 6 3 10 19 10 35 0 43 -50 64
-92 39z m60 -42 c4 -20 -25 -34 -40 -19 -15 15 -1 44 19 40 10 -2 19 -11 21
-21z m-3 -87 c0 -29 -32 -41 -41 -16 -9 24 4 48 23 44 12 -2 18 -12 18 -28z"/>
</g>
</svg>
