<?xml version="1.0" standalone="no"?>
<!DOCTYPE svg PUBLIC "-//W3C//DTD SVG 20010904//EN"
 "http://www.w3.org/TR/2001/REC-SVG-20010904/DTD/svg10.dtd">
<svg version="1.0" xmlns="http://www.w3.org/2000/svg"
 width="196.000000pt" height="219.000000pt" viewBox="0 0 196.000000 219.000000"
 preserveAspectRatio="xMidYMid meet">

<g transform="translate(0.000000,219.000000) scale(0.100000,-0.100000)"
fill="#000000" stroke="none">
<path d="M273 2161 c-18 -12 -37 -35 -45 -57 l-13 -37 -97 6 -98 5 0 -789 0
-789 100 0 c94 0 100 -1 100 -20 0 -53 57 -110 110 -110 53 0 110 57 110 110
0 20 1 20 758 20 l757 0 0 785 0 785 -755 0 -756 0 -13 36 c-14 39 -62 74
-101 74 -14 0 -39 -9 -57 -19z m-53 -261 l0 -140 -75 0 -75 0 0 140 0 140 75
0 75 0 0 -140z m428 3 l-3 -138 -102 -3 -103 -3 0 141 0 140 105 0 106 0 -3
-137z m612 -3 l0 -140 -292 2 -293 3 -3 138 -3 137 296 0 295 0 0 -140z m660
0 l0 -140 -315 0 -315 0 0 140 0 140 315 0 315 0 0 -140z m-1700 -310 l0 -140
-75 0 -75 0 0 140 0 140 75 0 75 0 0 -140z m428 3 l-3 -138 -102 -3 -103 -3 0
141 0 140 105 0 106 0 -3 -137z m612 -3 l0 -140 -292 2 -293 3 -3 138 -3 137
296 0 295 0 0 -140z m660 0 l0 -140 -315 0 -315 0 0 140 0 140 315 0 315 0 0
-140z m-1700 -300 l0 -140 -75 0 -75 0 0 140 0 140 75 0 75 0 0 -140z m428 -2
l3 -138 -106 0 -105 0 0 140 0 141 103 -3 102 -3 3 -137z m612 2 l0 -140 -295
0 -295 0 0 133 c0 74 3 137 7 140 3 4 136 7 295 7 l288 0 0 -140z m660 0 l0
-140 -109 0 -109 0 -7 28 c-3 16 -22 44 -41 63 -31 30 -41 34 -89 34 -48 0
-58 -4 -89 -34 -19 -19 -38 -47 -41 -63 -6 -27 -8 -28 -76 -28 l-69 0 0 140 0
140 315 0 315 0 0 -140z m-320 -85 c7 -8 10 -26 8 -40 -3 -14 -1 -28 3 -31 13
-8 11 -48 -3 -62 -17 -17 -73 -15 -88 3 -18 22 -4 31 24 16 13 -8 29 -10 35
-7 18 12 12 37 -9 43 -25 7 -25 11 0 31 14 12 17 21 10 32 -8 12 -13 13 -30 3
-30 -20 -43 -17 -30 7 13 24 62 27 80 5z m-1380 -225 l0 -140 -75 0 -75 0 0
140 0 140 75 0 75 0 0 -140z m428 -2 l3 -138 -106 0 -105 0 0 140 0 141 103
-3 102 -3 3 -137z m612 2 l0 -140 -295 0 -295 0 0 133 c0 74 3 137 7 140 3 4
136 7 295 7 l288 0 0 -140z m176 116 c3 -13 21 -39 40 -57 31 -30 41 -34 89
-34 48 0 58 4 89 34 19 18 37 44 40 57 6 23 9 24 116 24 l110 0 0 -140 0 -140
-109 0 -109 0 -7 28 c-3 16 -22 44 -41 63 -31 30 -41 34 -89 34 -48 0 -58 -4
-89 -34 -19 -19 -38 -47 -41 -63 -6 -27 -8 -28 -76 -28 l-69 0 0 140 0 140 70
0 c65 0 70 -2 76 -24z m172 -188 c21 -21 13 -51 -25 -90 l-37 -38 37 0 c20 0
37 -4 37 -10 0 -5 -25 -10 -55 -10 -33 0 -55 4 -55 11 0 6 18 28 40 50 22 22
40 46 40 55 0 22 -31 30 -45 11 -13 -18 -35 -23 -35 -8 0 33 72 55 98 29z
m-1388 -238 l0 -140 -75 0 -75 0 0 140 0 140 75 0 75 0 0 -140z m430 0 l0
-140 -105 0 -105 0 0 140 0 140 105 0 105 0 0 -140z m610 0 l0 -140 -295 0
-295 0 0 140 0 140 295 0 295 0 0 -140z m179 118 c5 -13 23 -36 41 -53 27 -26
39 -30 85 -30 46 0 58 4 85 30 18 17 36 40 41 53 8 21 14 22 119 22 l110 0 0
-140 0 -140 -315 0 -315 0 0 140 0 140 70 0 c64 0 71 -2 79 -22z"/>
<path d="M333 220 c-18 -16 -33 -34 -33 -40 0 -14 23 -13 38 2 9 9 12 -4 12
-60 0 -57 3 -72 15 -72 12 0 15 18 15 100 0 55 -3 100 -7 100 -5 0 -23 -14
-40 -30z"/>
</g>
</svg>
