<?xml version="1.0" standalone="no"?>
<!DOCTYPE svg PUBLIC "-//W3C//DTD SVG 20010904//EN"
 "http://www.w3.org/TR/2001/REC-SVG-20010904/DTD/svg10.dtd">
<svg version="1.0" xmlns="http://www.w3.org/2000/svg"
 width="202.000000pt" height="215.000000pt" viewBox="0 0 202.000000 215.000000"
 preserveAspectRatio="xMidYMid meet">

<g transform="translate(0.000000,215.000000) scale(0.100000,-0.100000)"
fill="#000000" stroke="none">
<path d="M293 2111 c-18 -12 -37 -35 -44 -55 l-13 -36 -118 0 c-98 0 -118 -3
-118 -15 0 -8 9 -15 20 -15 19 0 20 -7 20 -140 0 -133 -1 -140 -20 -140 -11 0
-20 -7 -20 -15 0 -8 9 -15 20 -15 19 0 20 -7 20 -136 0 -127 -1 -136 -20 -141
-26 -7 -26 -19 0 -26 19 -5 20 -14 20 -141 0 -129 -1 -136 -20 -136 -11 0 -20
-7 -20 -15 0 -8 9 -15 20 -15 19 0 20 -7 20 -140 0 -133 -1 -140 -20 -140 -11
0 -20 -7 -20 -15 0 -8 9 -15 20 -15 19 0 20 -7 20 -140 0 -133 -1 -140 -20
-140 -11 0 -20 -7 -20 -15 0 -12 20 -15 120 -15 114 0 120 -1 120 -20 0 -53
57 -110 110 -110 53 0 110 57 110 110 0 20 0 20 780 20 687 0 780 2 780 15 0
8 -9 15 -20 15 -19 0 -20 7 -20 140 0 133 1 140 20 140 11 0 20 7 20 15 0 8
-9 15 -20 15 -19 0 -20 7 -20 136 0 127 1 136 20 141 26 7 26 33 0 33 -19 0
-20 7 -20 136 0 127 1 136 20 141 26 7 26 19 0 26 -19 5 -20 14 -20 141 0 129
1 136 20 136 26 0 26 26 0 33 -19 5 -20 14 -20 141 0 129 1 136 20 136 11 0
20 7 20 15 0 13 -93 15 -778 15 l-778 0 -13 36 c-14 39 -62 74 -101 74 -14 0
-39 -9 -57 -19z m-53 -261 l0 -140 -84 0 c-67 0 -85 3 -90 16 -8 20 -8 228 0
248 5 13 23 16 90 16 l84 0 0 -140z m440 0 l0 -140 -110 0 -110 0 0 140 0 140
110 0 110 0 0 -140z m620 0 l0 -140 -295 0 -295 0 0 140 0 140 295 0 295 0 0
-140z m658 3 l-3 -138 -309 -3 c-241 -2 -311 1 -318 10 -9 15 -11 229 -2 252
5 14 43 16 320 16 l315 0 -3 -137z m-1718 -313 l0 -140 -84 0 c-67 0 -85 3
-90 16 -8 20 -8 228 0 248 5 13 23 16 90 16 l84 0 0 -140z m440 0 l0 -140
-110 0 -110 0 0 140 0 140 110 0 110 0 0 -140z m618 3 l-3 -138 -292 -3 -293
-2 0 140 0 140 295 0 296 0 -3 -137z m660 0 l-3 -138 -309 -3 c-241 -2 -311 1
-318 10 -9 15 -11 229 -2 252 5 14 43 16 320 16 l315 0 -3 -137z m-1718 -303
l0 -141 -87 3 -88 3 -3 115 c-4 168 -9 160 93 160 l85 0 0 -140z m440 0 l0
-140 -110 0 -110 0 0 140 0 140 110 0 110 0 0 -140z m618 -2 l3 -138 -61 0
c-50 0 -60 3 -60 18 0 53 -78 122 -140 122 -62 0 -140 -69 -140 -122 0 -16
-11 -18 -95 -18 l-95 0 0 140 0 140 293 -2 292 -3 3 -137z m660 -1 l3 -137
-318 2 -318 3 -3 115 c-1 63 0 125 3 138 l5 22 313 -2 312 -3 3 -138z m-880
-69 c21 -21 13 -51 -25 -90 l-37 -38 37 0 c20 0 37 -4 37 -10 0 -5 -25 -10
-55 -10 -30 0 -55 2 -55 5 0 2 20 27 46 56 25 28 43 56 41 62 -6 19 -46 20
-53 3 -7 -19 -24 -21 -24 -3 0 33 62 51 88 25z m-838 -238 l0 -140 -84 0 c-67
0 -85 3 -90 16 -8 20 -8 228 0 248 5 13 23 16 90 16 l84 0 0 -140z m440 0 l0
-140 -110 0 -110 0 0 140 0 140 110 0 110 0 0 -140z m239 105 c57 -98 185 -98
242 0 20 34 23 35 80 35 l59 0 0 -140 0 -140 -295 0 -295 0 0 140 0 140 94 0
94 0 21 -35z m1039 -107 l3 -138 -84 0 -84 0 -6 38 c-5 25 -18 49 -42 72 -32
31 -42 35 -90 35 -48 0 -58 -4 -90 -35 -24 -23 -37 -47 -42 -72 l-6 -38 -92 0
c-75 0 -94 3 -99 16 -8 20 -8 228 0 248 6 15 40 16 318 14 l311 -3 3 -137z
m-266 -73 c8 -19 8 -28 -2 -40 -7 -8 -8 -15 -2 -15 18 0 23 -33 7 -56 -18 -28
-65 -33 -85 -9 -17 21 -7 29 18 14 11 -7 27 -9 36 -6 22 9 20 38 -4 44 -24 6
-26 19 -5 27 23 8 19 46 -5 46 -11 0 -20 -4 -20 -10 0 -5 -7 -10 -15 -10 -18
0 -19 12 -3 28 22 22 67 14 80 -13z m-1452 -235 l0 -140 -84 0 c-67 0 -85 3
-90 16 -8 20 -8 228 0 248 5 13 23 16 90 16 l84 0 0 -140z m440 0 l0 -140
-110 0 -110 0 0 140 0 140 110 0 110 0 0 -140z m620 0 l0 -140 -295 0 -295 0
0 140 0 140 295 0 295 0 0 -140z m230 127 c0 -7 16 -29 36 -48 31 -30 41 -34
89 -34 48 0 58 4 89 34 20 19 36 41 36 48 0 10 23 13 90 13 l90 0 0 -140 0
-140 -314 0 c-277 0 -315 2 -320 16 -8 20 -8 228 0 248 5 13 24 16 105 16 75
0 99 -3 99 -13z"/>
<path d="M310 215 c0 -11 11 -15 40 -15 l39 0 -23 -47 c-13 -27 -27 -65 -30
-86 -6 -33 -5 -37 14 -37 14 0 20 6 20 24 0 31 19 85 42 118 33 47 25 58 -42
58 -47 0 -60 -3 -60 -15z"/>
</g>
</svg>
