<?xml version="1.0" standalone="no"?>
<!DOCTYPE svg PUBLIC "-//W3C//DTD SVG 20010904//EN"
 "http://www.w3.org/TR/2001/REC-SVG-20010904/DTD/svg10.dtd">
<svg version="1.0" xmlns="http://www.w3.org/2000/svg"
 width="202.000000pt" height="221.000000pt" viewBox="0 0 202.000000 221.000000"
 preserveAspectRatio="xMidYMid meet">

<g transform="translate(0.000000,221.000000) scale(0.100000,-0.100000)"
fill="#000000" stroke="none">
<path d="M303 2171 c-18 -12 -37 -35 -44 -55 l-13 -36 -123 0 c-103 0 -123 -2
-123 -15 0 -9 9 -15 25 -15 l26 0 -3 -137 c-3 -135 -4 -138 -25 -141 -32 -5
-29 -32 2 -32 l26 0 -3 -137 c-3 -135 -4 -138 -26 -141 -29 -4 -29 -20 1 -24
21 -3 22 -6 25 -140 l3 -138 -26 0 c-31 0 -34 -27 -2 -32 21 -3 22 -6 25 -140
l3 -138 -26 0 c-16 0 -25 -6 -25 -15 0 -9 9 -15 25 -15 l25 0 0 -140 0 -140
-25 0 c-16 0 -25 -6 -25 -15 0 -13 21 -15 125 -15 119 0 125 -1 125 -20 0 -53
57 -110 110 -110 53 0 110 57 110 110 0 20 0 20 775 20 682 0 775 2 775 15 0
8 -7 15 -15 15 -13 0 -15 22 -15 140 0 118 2 140 15 140 8 0 15 7 15 15 0 8
-7 15 -15 15 -13 0 -15 22 -15 140 0 118 2 140 15 140 8 0 15 7 15 15 0 8 -7
15 -15 15 -13 0 -15 22 -15 135 0 117 2 135 18 145 16 10 16 10 -1 20 -15 10
-17 28 -17 145 0 113 2 135 15 135 8 0 15 7 15 15 0 8 -7 15 -15 15 -13 0 -15
22 -15 140 0 118 2 140 15 140 8 0 15 7 15 15 0 13 -93 15 -773 15 l-773 0
-13 36 c-14 39 -62 74 -101 74 -14 0 -39 -9 -57 -19z m-53 -261 l0 -141 -87 3
-88 3 -3 138 -3 137 91 0 90 0 0 -140z m410 0 l0 -140 -95 0 -95 0 0 140 0
140 95 0 95 0 0 -140z m660 0 l0 -140 -315 0 -315 0 0 140 0 140 315 0 315 0
0 -140z m640 0 l0 -140 -305 0 -305 0 0 140 0 140 305 0 305 0 0 -140z m-1710
-310 l0 -141 -87 3 -88 3 -3 138 -3 137 91 0 90 0 0 -140z m410 0 l0 -140 -95
0 -95 0 0 140 0 140 95 0 95 0 0 -140z m660 0 l0 -140 -315 0 -315 0 0 140 0
140 315 0 315 0 0 -140z m640 0 l0 -140 -305 0 -305 0 0 140 0 140 305 0 305
0 0 -140z m-1710 -300 l0 -140 -90 0 -90 0 0 133 c0 74 3 137 7 140 3 4 44 7
90 7 l83 0 0 -140z m410 0 l0 -140 -95 0 -95 0 0 140 0 140 95 0 95 0 0 -140z
m660 0 l0 -140 -315 0 -315 0 0 140 0 140 315 0 315 0 0 -140z m640 0 l0 -140
-82 0 -83 1 -20 42 c-11 23 -35 52 -54 64 -69 46 -157 17 -196 -64 l-20 -42
-77 -1 -78 0 0 140 0 140 305 0 305 0 0 -140z m-268 -95 c8 -18 8 -28 -1 -39
-8 -10 -9 -16 -1 -21 14 -8 13 -48 -2 -63 -17 -17 -64 -15 -84 5 -12 12 -13
18 -4 21 6 2 17 -1 23 -7 15 -15 44 -14 50 2 7 20 -4 37 -24 37 -25 0 -24 17
1 25 11 3 20 13 20 21 0 20 -27 29 -45 14 -20 -17 -32 -5 -15 15 20 25 69 19
82 -10z m-1442 -215 l0 -140 -90 0 -90 0 0 133 c0 74 3 137 7 140 3 4 44 7 90
7 l83 0 0 -140z m410 0 l0 -140 -95 0 -95 0 0 140 0 140 95 0 95 0 0 -140z
m660 0 l0 -140 -315 0 -315 0 0 140 0 140 315 0 315 0 0 -140z m205 103 c58
-108 192 -108 250 0 l20 37 83 0 82 0 0 -140 0 -140 -84 0 -84 0 -7 28 c-3 16
-22 44 -41 63 -32 31 -41 34 -94 34 -53 0 -62 -3 -94 -34 -19 -19 -38 -47 -41
-63 -7 -28 -7 -28 -86 -28 l-79 0 0 140 0 140 78 0 77 0 20 -37z m163 -175
c22 -22 13 -55 -25 -92 l-37 -36 37 0 c20 0 37 -4 37 -10 0 -5 -25 -10 -55
-10 -30 0 -55 4 -55 8 0 4 18 26 40 47 24 23 40 48 40 62 0 27 -27 31 -45 7
-19 -27 -38 -13 -20 14 18 24 63 30 83 10z m-1438 -238 l0 -140 -90 0 -90 0 0
140 0 140 90 0 90 0 0 -140z m410 0 l0 -140 -95 0 -95 0 0 140 0 140 95 0 95
0 0 -140z m660 0 l0 -140 -315 0 -315 0 0 140 0 140 315 0 315 0 0 -140z m199
118 c5 -13 23 -36 41 -53 27 -26 38 -30 90 -30 52 0 63 4 90 30 18 17 36 40
41 53 8 20 15 22 94 22 l85 0 0 -140 0 -140 -305 0 -305 0 0 140 0 140 80 0
c74 0 81 -2 89 -22z"/>
<path d="M340 240 c-20 -20 -19 -40 2 -40 6 0 16 7 23 17 14 19 45 11 45 -13
0 -9 -20 -39 -45 -66 -62 -69 -60 -78 20 -78 51 0 65 3 65 15 0 11 -11 15 -42
15 l-42 0 37 38 c60 62 48 132 -22 132 -12 0 -30 -9 -41 -20z"/>
</g>
</svg>
