<?xml version="1.0" standalone="no"?>
<!DOCTYPE svg PUBLIC "-//W3C//DTD SVG 20010904//EN"
 "http://www.w3.org/TR/2001/REC-SVG-20010904/DTD/svg10.dtd">
<svg version="1.0" xmlns="http://www.w3.org/2000/svg"
 width="198.000000pt" height="216.000000pt" viewBox="0 0 198.000000 216.000000"
 preserveAspectRatio="xMidYMid meet">

<g transform="translate(0.000000,216.000000) scale(0.100000,-0.100000)"
fill="#000000" stroke="none">
<path d="M273 2131 c-18 -12 -37 -35 -44 -55 l-13 -36 -108 0 c-89 0 -108 -3
-108 -15 0 -8 5 -15 10 -15 15 0 13 -255 -2 -281 -10 -17 -10 -23 0 -26 17 -6
17 -264 0 -281 -9 -9 -9 -15 0 -24 17 -17 17 -275 0 -281 -10 -3 -10 -9 -1
-26 16 -26 18 -281 3 -281 -5 0 -10 -7 -10 -15 0 -8 5 -15 10 -15 6 0 10 -53
10 -140 0 -87 -4 -140 -10 -140 -5 0 -10 -7 -10 -15 0 -12 19 -15 110 -15 104
0 110 -1 110 -20 0 -53 57 -110 110 -110 53 0 110 57 110 110 0 20 0 20 770
20 678 0 770 2 770 15 0 8 -4 15 -10 15 -6 0 -10 53 -10 140 0 87 4 140 10
140 6 0 10 7 10 15 0 8 -4 15 -10 15 -6 0 -10 53 -10 140 0 87 4 140 10 140 6
0 10 7 10 15 0 8 -4 15 -10 15 -15 0 -13 263 2 278 9 9 9 15 0 24 -15 15 -17
278 -2 278 6 0 10 7 10 15 0 8 -4 15 -10 15 -6 0 -10 53 -10 140 0 87 4 140
10 140 6 0 10 7 10 15 0 13 -92 15 -768 15 l-768 0 -13 36 c-14 39 -62 74
-101 74 -14 0 -39 -9 -57 -19z m-53 -261 l0 -141 -88 3 -87 3 -3 138 -3 137
91 0 90 0 0 -140z m410 0 l0 -140 -95 0 -95 0 0 140 0 140 95 0 95 0 0 -140z
m660 0 l0 -140 -315 0 -315 0 0 140 0 140 315 0 315 0 0 -140z m640 0 l0 -140
-305 0 -305 0 0 140 0 140 305 0 305 0 0 -140z m-1710 -310 l0 -141 -88 3 -87
3 -3 138 -3 137 91 0 90 0 0 -140z m410 0 l0 -140 -95 0 -95 0 0 140 0 140 95
0 95 0 0 -140z m660 0 l0 -140 -315 0 -315 0 0 140 0 140 315 0 315 0 0 -140z
m640 0 l0 -140 -305 0 -305 0 0 140 0 140 305 0 305 0 0 -140z m-1710 -300 l0
-140 -90 0 -90 0 0 133 c0 74 3 137 7 140 3 4 44 7 90 7 l83 0 0 -140z m410 0
l0 -140 -95 0 -95 0 0 140 0 140 95 0 95 0 0 -140z m660 0 l0 -140 -315 0
-315 0 0 140 0 140 315 0 315 0 0 -140z m640 0 l0 -140 -82 0 -83 1 -20 42
c-11 23 -35 52 -54 64 -69 46 -157 17 -196 -64 l-20 -42 -77 -1 -78 0 0 140 0
140 305 0 305 0 0 -140z m-268 -95 c8 -18 8 -28 -1 -39 -8 -10 -9 -16 -1 -21
14 -8 13 -48 -2 -63 -17 -17 -64 -15 -84 5 -12 12 -13 18 -4 21 6 2 17 -1 23
-7 15 -15 44 -14 50 2 7 20 -4 37 -24 37 -25 0 -24 17 1 25 11 3 20 13 20 21
0 20 -27 29 -45 14 -20 -17 -32 -5 -15 15 20 25 69 19 82 -10z m-1442 -215 l0
-140 -90 0 -90 0 0 133 c0 74 3 137 7 140 3 4 44 7 90 7 l83 0 0 -140z m410 0
l0 -140 -95 0 -95 0 0 140 0 140 95 0 95 0 0 -140z m660 0 l0 -140 -315 0
-315 0 0 140 0 140 315 0 315 0 0 -140z m205 103 c58 -108 192 -108 250 0 l20
37 83 0 82 0 0 -140 0 -140 -84 0 -84 0 -7 28 c-3 16 -22 44 -41 63 -32 31
-41 34 -94 34 -53 0 -62 -3 -94 -34 -19 -19 -38 -47 -41 -63 -7 -28 -7 -28
-86 -28 l-79 0 0 140 0 140 78 0 77 0 20 -37z m163 -175 c22 -22 13 -55 -25
-92 l-37 -36 37 0 c20 0 37 -4 37 -10 0 -5 -25 -10 -55 -10 -30 0 -55 4 -55 8
0 4 18 26 40 47 24 23 40 48 40 62 0 27 -27 31 -45 7 -19 -27 -38 -13 -20 14
18 24 63 30 83 10z m-1438 -238 l0 -140 -90 0 -90 0 0 140 0 140 90 0 90 0 0
-140z m410 0 l0 -140 -95 0 -95 0 0 140 0 140 95 0 95 0 0 -140z m660 0 l0
-140 -315 0 -315 0 0 140 0 140 315 0 315 0 0 -140z m199 118 c5 -13 23 -36
41 -53 27 -26 38 -30 90 -30 52 0 63 4 90 30 18 17 36 40 41 53 8 20 15 22 94
22 l85 0 0 -140 0 -140 -305 0 -305 0 0 140 0 140 80 0 c74 0 81 -2 89 -22z"/>
<path d="M310 200 c-20 -20 -19 -40 2 -40 6 0 16 7 23 17 14 19 45 11 45 -13
0 -9 -20 -39 -45 -66 -62 -69 -60 -78 20 -78 51 0 65 3 65 15 0 11 -11 15 -42
15 l-42 0 37 38 c60 62 48 132 -22 132 -12 0 -30 -9 -41 -20z"/>
</g>
</svg>
