<?xml version="1.0" standalone="no"?>
<!DOCTYPE svg PUBLIC "-//W3C//DTD SVG 20010904//EN"
 "http://www.w3.org/TR/2001/REC-SVG-20010904/DTD/svg10.dtd">
<svg version="1.0" xmlns="http://www.w3.org/2000/svg"
 width="199.000000pt" height="216.000000pt" viewBox="0 0 199.000000 216.000000"
 preserveAspectRatio="xMidYMid meet">

<g transform="translate(0.000000,216.000000) scale(0.100000,-0.100000)"
fill="#000000" stroke="none">
<path d="M293 2131 c-18 -12 -37 -35 -44 -55 l-13 -36 -118 0 c-98 0 -118 -3
-118 -15 0 -8 5 -15 10 -15 6 0 10 -53 10 -140 0 -87 -4 -140 -10 -140 -5 0
-10 -7 -10 -15 0 -8 5 -15 10 -15 16 0 13 -277 -2 -284 -11 -5 -11 -7 0 -12
15 -7 18 -284 2 -284 -5 0 -10 -7 -10 -15 0 -8 5 -15 10 -15 6 0 10 -53 10
-140 0 -87 -4 -140 -10 -140 -5 0 -10 -7 -10 -15 0 -8 5 -15 10 -15 6 0 10
-53 10 -140 0 -87 -4 -140 -10 -140 -5 0 -10 -7 -10 -15 0 -12 20 -15 120 -15
114 0 120 -1 120 -20 0 -53 57 -110 110 -110 53 0 110 57 110 110 0 20 0 20
765 20 673 0 765 2 765 15 0 8 -4 15 -10 15 -6 0 -10 53 -10 140 0 87 4 140
10 140 6 0 10 7 10 15 0 8 -4 15 -10 15 -6 0 -10 53 -10 140 0 87 4 140 10
140 6 0 10 7 10 15 0 8 -4 15 -10 15 -16 0 -13 277 3 284 10 5 10 7 0 12 -16
7 -19 284 -3 284 6 0 10 7 10 15 0 8 -4 15 -10 15 -6 0 -10 53 -10 140 0 87 4
140 10 140 6 0 10 7 10 15 0 13 -91 15 -763 15 l-763 0 -13 36 c-14 39 -62 74
-101 74 -14 0 -39 -9 -57 -19z m-53 -261 l0 -140 -95 0 -95 0 0 140 0 140 95
0 95 0 0 -140z m440 0 l0 -140 -110 0 -110 0 0 140 0 140 110 0 110 0 0 -140z
m640 0 l0 -140 -305 0 -305 0 0 140 0 140 305 0 305 0 0 -140z m620 0 l0 -140
-295 0 -295 0 0 140 0 140 295 0 295 0 0 -140z m-1700 -310 l0 -140 -95 0 -95
0 0 140 0 140 95 0 95 0 0 -140z m440 0 l0 -140 -110 0 -110 0 0 140 0 140
110 0 110 0 0 -140z m640 0 l0 -140 -305 0 -305 0 0 140 0 140 305 0 305 0 0
-140z m620 0 l0 -140 -292 2 -293 3 -3 138 -3 137 296 0 295 0 0 -140z m-1700
-300 l0 -140 -95 0 -95 0 0 140 0 140 95 0 95 0 0 -140z m440 0 l0 -140 -110
0 -110 0 0 140 0 140 110 0 110 0 0 -140z m640 0 l0 -140 -305 0 -305 0 0 140
0 140 305 0 305 0 0 -140z m620 0 l0 -140 -89 0 -89 0 -7 28 c-3 16 -22 44
-41 63 -31 30 -41 34 -89 34 -48 0 -58 -4 -89 -34 -19 -19 -38 -47 -41 -63 -6
-27 -8 -28 -76 -28 l-69 0 0 133 c0 74 3 137 7 140 3 4 136 7 295 7 l288 0 0
-140z m-278 -95 c8 -19 8 -28 -2 -40 -8 -9 -8 -15 -2 -15 6 0 14 -9 17 -21 14
-45 -64 -81 -95 -44 -17 21 -7 29 18 14 11 -7 27 -9 36 -6 24 9 16 41 -12 45
-27 4 -29 19 -2 27 11 3 20 13 20 21 0 18 -32 32 -38 16 -4 -13 -32 -17 -32
-4 0 17 25 32 52 32 21 0 32 -7 40 -25z m-1422 -215 l0 -140 -95 0 -95 0 0
140 0 140 95 0 95 0 0 -140z m440 0 l0 -140 -110 0 -110 0 0 140 0 140 110 0
110 0 0 -140z m640 0 l0 -140 -305 0 -305 0 0 140 0 140 305 0 305 0 0 -140z
m176 116 c3 -13 21 -39 40 -57 31 -30 41 -34 89 -34 48 0 58 4 89 34 19 18 37
44 40 57 6 23 10 24 96 24 l90 0 0 -140 0 -140 -89 0 -89 0 -7 28 c-3 16 -22
44 -41 63 -31 30 -41 34 -89 34 -48 0 -58 -4 -89 -34 -19 -19 -38 -47 -41 -63
-6 -27 -8 -28 -76 -28 l-69 0 0 140 0 140 70 0 c65 0 70 -2 76 -24z m162 -188
c23 -23 13 -59 -25 -94 l-37 -34 37 0 c20 0 37 -4 37 -10 0 -5 -25 -10 -55
-10 -30 0 -55 2 -55 5 0 2 20 27 45 55 27 30 42 56 39 65 -8 19 -40 19 -48 0
-7 -18 -26 -20 -26 -2 0 33 62 51 88 25z m-1418 -238 l0 -140 -95 0 -95 0 0
140 0 140 95 0 95 0 0 -140z m440 0 l0 -140 -110 0 -110 0 0 140 0 140 110 0
110 0 0 -140z m640 0 l0 -140 -305 0 -305 0 0 140 0 140 305 0 305 0 0 -140z
m179 118 c5 -13 23 -36 41 -53 27 -26 39 -30 85 -30 46 0 58 4 85 30 18 17 36
40 41 53 8 21 14 22 99 22 l90 0 0 -140 0 -140 -295 0 -295 0 0 140 0 140 70
0 c64 0 71 -2 79 -22z"/>
<path d="M338 209 c-10 -5 -18 -17 -18 -24 0 -17 26 -20 35 -5 10 16 35 12 35
-5 0 -9 -7 -18 -15 -21 -22 -9 -18 -31 5 -37 14 -3 20 -14 20 -31 0 -32 -28
-46 -45 -23 -18 24 -37 21 -33 -5 4 -33 49 -46 82 -24 20 12 26 25 26 51 0 20
-6 37 -16 43 -14 8 -14 10 0 21 22 19 20 37 -6 55 -26 18 -46 20 -70 5z"/>
</g>
</svg>
