<?xml version="1.0" standalone="no"?>
<!DOCTYPE svg PUBLIC "-//W3C//DTD SVG 20010904//EN"
 "http://www.w3.org/TR/2001/REC-SVG-20010904/DTD/svg10.dtd">
<svg version="1.0" xmlns="http://www.w3.org/2000/svg"
 width="198.000000pt" height="183.000000pt" viewBox="0 0 198.000000 183.000000"
 preserveAspectRatio="xMidYMid meet">

<g transform="translate(0.000000,183.000000) scale(0.100000,-0.100000)"
fill="#000000" stroke="none">
<path d="M910 1803 c-25 -9 -71 -56 -81 -81 l-9 -23 -400 3 -400 3 0 -787 0
-788 710 0 c577 0 710 -2 710 -13 0 -7 16 -29 36 -48 31 -30 41 -34 89 -34 48
0 58 4 89 34 20 19 36 41 36 48 0 10 32 13 145 13 122 0 145 2 145 15 0 8 -7
15 -15 15 -13 0 -15 22 -15 140 0 118 2 140 15 140 8 0 15 7 15 15 0 8 -7 15
-15 15 -13 0 -15 22 -15 140 0 118 2 140 15 140 8 0 15 7 15 15 0 8 -7 15 -15
15 -13 0 -15 22 -15 140 0 118 2 140 15 140 8 0 15 5 15 10 0 6 -7 10 -15 10
-13 0 -15 22 -15 140 0 118 2 140 15 140 8 0 15 7 15 15 0 8 -7 15 -15 15 -13
0 -15 22 -15 140 0 118 2 140 15 140 8 0 15 7 15 15 0 13 -56 15 -445 15
l-445 0 -9 23 c-17 42 -66 79 -113 83 -24 2 -50 1 -58 -3z m90 -62 c15 -30 13
-38 -26 -81 l-36 -40 36 0 c20 0 36 -4 36 -10 0 -5 -25 -10 -55 -10 -33 0 -55
4 -55 11 0 6 18 28 40 50 22 22 40 46 40 55 0 22 -31 30 -45 11 -13 -18 -35
-23 -35 -8 0 38 81 56 100 22z m-352 -208 l-3 -138 -287 -3 -288 -2 0 140 0
140 290 0 291 0 -3 -137z m177 109 c3 -16 22 -44 41 -63 31 -30 41 -34 89 -34
48 0 58 4 89 34 19 19 38 47 41 63 l7 28 84 0 84 0 0 -140 0 -140 -292 2 -293
3 -3 138 -3 137 75 0 c74 0 74 0 81 -28z m1095 -112 l0 -140 -315 0 -315 0 0
140 0 140 315 0 315 0 0 -140z m-1272 -307 l-3 -138 -287 -3 -288 -2 0 140 0
140 290 0 291 0 -3 -137z m612 -3 l0 -140 -292 2 -293 3 -3 138 -3 137 296 0
295 0 0 -140z m660 0 l0 -140 -315 0 -315 0 0 140 0 140 315 0 315 0 0 -140z
m-1272 -302 l3 -138 -291 0 -290 0 0 140 0 140 288 -2 287 -3 3 -137z m612 2
l0 -140 -295 0 -295 0 0 133 c0 74 3 137 7 140 3 4 136 7 295 7 l288 0 0 -140z
m660 0 l0 -140 -315 0 -315 0 0 140 0 140 315 0 315 0 0 -140z m-1272 -312 l3
-138 -291 0 -290 0 0 140 0 140 288 -2 287 -3 3 -137z m612 2 l0 -140 -84 0
-84 0 -7 28 c-3 16 -22 44 -41 63 -31 30 -41 34 -89 34 -48 0 -58 -4 -89 -34
-19 -19 -38 -47 -41 -63 -7 -28 -7 -28 -81 -28 l-74 0 0 133 c0 74 3 137 7
140 3 4 136 7 295 7 l288 0 0 -140z m660 0 l0 -140 -315 0 -315 0 0 140 0 140
315 0 315 0 0 -140z m-940 -140 c0 -64 -3 -80 -15 -80 -12 0 -15 13 -15 56 0
51 -2 55 -20 49 -11 -3 -20 -3 -20 1 0 9 51 53 63 54 4 0 7 -36 7 -80z m-330
-170 l0 -140 -290 0 -290 0 0 140 0 140 290 0 290 0 0 -140z m179 118 c5 -13
23 -36 41 -53 27 -26 39 -30 85 -30 46 0 58 4 85 30 18 17 36 40 41 53 8 20
15 22 94 22 l85 0 0 -140 0 -140 -295 0 -295 0 0 140 0 140 75 0 c69 0 76 -2
84 -22z m1091 -118 l0 -140 -109 0 -109 0 -6 33 c-4 19 -21 48 -42 68 -31 30
-41 34 -89 34 -48 0 -58 -4 -89 -34 -21 -20 -38 -49 -42 -68 l-6 -33 -69 0
-69 0 0 140 0 140 315 0 315 0 0 -140z m-320 -65 c7 -8 10 -26 8 -40 -3 -14
-1 -28 3 -31 13 -8 11 -48 -3 -62 -20 -20 -76 -15 -88 8 -8 15 -8 20 3 20 7 0
18 -5 24 -11 16 -16 43 -3 43 21 0 13 -7 20 -20 20 -26 0 -25 8 3 30 17 15 19
21 10 31 -10 10 -18 10 -38 -1 -30 -16 -42 -8 -20 14 21 20 59 21 75 1z"/>
</g>
</svg>
