<?xml version="1.0" standalone="no"?>
<!DOCTYPE svg PUBLIC "-//W3C//DTD SVG 20010904//EN"
 "http://www.w3.org/TR/2001/REC-SVG-20010904/DTD/svg10.dtd">
<svg version="1.0" xmlns="http://www.w3.org/2000/svg"
 width="197.000000pt" height="214.000000pt" viewBox="0 0 197.000000 214.000000"
 preserveAspectRatio="xMidYMid meet">

<g transform="translate(0.000000,214.000000) scale(0.100000,-0.100000)"
fill="#000000" stroke="none">
<path d="M293 2111 c-18 -12 -37 -35 -44 -55 l-13 -36 -116 0 -115 0 0 -785 0
-785 118 0 c111 0 117 -1 117 -20 0 -53 57 -110 110 -110 53 0 110 57 110 110
0 20 1 20 756 20 l756 0 -8 23 c-7 18 -8 109 -5 300 0 12 -2 76 -5 141 -4 80
-1 128 7 147 9 22 9 32 0 43 -9 10 -11 53 -7 143 2 70 4 136 4 146 0 9 0 76 0
147 0 72 0 141 0 155 0 14 0 82 -1 153 -1 70 3 137 7 150 l8 22 -754 0 -754 0
-13 36 c-14 39 -62 74 -101 74 -14 0 -39 -9 -57 -19z m-53 -261 l0 -140 -100
0 -100 0 0 140 0 140 100 0 100 0 0 -140z m410 0 l0 -140 -95 0 -95 0 0 140 0
140 95 0 95 0 0 -140z m620 0 l0 -140 -295 0 -295 0 0 140 0 140 295 0 295 0
0 -140z m660 0 l0 -140 -315 0 -315 0 0 140 0 140 315 0 315 0 0 -140z m-1690
-310 l0 -140 -100 0 -100 0 0 140 0 140 100 0 100 0 0 -140z m410 0 l0 -140
-95 0 -95 0 0 140 0 140 95 0 95 0 0 -140z m620 0 l0 -140 -292 2 -293 3 -3
138 -3 137 296 0 295 0 0 -140z m658 3 l-3 -138 -312 -3 -313 -2 0 140 0 140
315 0 316 0 -3 -137z m-1688 -303 l0 -140 -100 0 -100 0 0 140 0 140 100 0
100 0 0 -140z m410 0 l0 -140 -95 0 -95 0 0 140 0 140 95 0 95 0 0 -140z m620
0 l0 -140 -295 0 -295 0 0 133 c0 74 3 137 7 140 3 4 136 7 295 7 l288 0 0
-140z m658 -2 l3 -138 -114 0 -114 0 -6 38 c-5 25 -18 49 -42 72 -32 31 -42
35 -90 35 -48 0 -58 -4 -90 -35 -24 -23 -37 -47 -42 -72 l-6 -38 -63 0 -64 0
0 140 0 140 313 -2 312 -3 3 -137z m-328 -53 c7 -8 10 -25 6 -39 -3 -14 -2
-28 4 -31 15 -9 12 -42 -6 -59 -18 -19 -65 -21 -82 -4 -16 16 -15 28 3 28 8 0
15 -5 15 -11 0 -6 10 -9 22 -7 30 4 37 38 9 45 -26 7 -27 15 -1 31 11 7 17 18
14 27 -7 17 -44 21 -44 5 0 -5 -7 -10 -15 -10 -13 0 -14 4 -5 20 13 24 62 27
80 5z m-1360 -255 l0 -140 -100 0 -100 0 0 140 0 140 100 0 100 0 0 -140z
m410 0 l0 -140 -95 0 -95 0 0 140 0 140 95 0 95 0 0 -140z m620 0 l0 -140 -89
0 -88 0 -6 42 c-4 30 -16 51 -41 77 -33 33 -42 36 -91 36 -49 0 -58 -3 -91
-36 -25 -26 -37 -47 -41 -77 l-6 -42 -68 0 -69 0 0 140 0 140 295 0 295 0 0
-140z m199 98 c38 -41 42 -43 96 -43 54 0 58 2 96 43 l40 42 114 0 115 0 0
-140 0 -140 -315 0 -315 0 0 140 0 140 65 0 c63 0 65 -1 104 -42z m-481 -140
c23 -23 13 -59 -25 -94 l-37 -34 37 0 c20 0 37 -4 37 -10 0 -5 -25 -10 -55
-10 -30 0 -55 2 -55 5 0 3 21 28 46 55 29 31 44 55 40 65 -7 19 -42 20 -50 0
-7 -18 -26 -20 -26 -2 0 33 62 51 88 25z m-748 -268 l0 -140 -100 0 -100 0 0
140 0 140 100 0 100 0 0 -140z m410 0 l0 -140 -95 0 -95 0 0 140 0 140 95 0
95 0 0 -140z m213 103 c34 -34 43 -38 92 -38 49 0 58 4 92 38 l39 37 92 0 92
0 0 -140 0 -140 -295 0 -295 0 0 140 0 140 72 0 c70 0 73 -1 111 -37z m1067
-103 l0 -140 -315 0 -315 0 0 140 0 140 315 0 315 0 0 -140z"/>
<path d="M341 162 c-22 -38 -41 -74 -41 -80 0 -7 16 -12 40 -12 33 0 40 -3 40
-20 0 -11 7 -20 15 -20 8 0 15 9 15 20 0 11 7 20 15 20 8 0 15 7 15 15 0 8 -7
15 -15 15 -12 0 -15 14 -15 65 0 86 -16 85 -69 -3z m39 -32 c0 -23 -4 -30 -20
-30 -24 0 -25 8 -4 38 20 29 24 28 24 -8z"/>
</g>
</svg>
