<?xml version="1.0" standalone="no"?>
<!DOCTYPE svg PUBLIC "-//W3C//DTD SVG 20010904//EN"
 "http://www.w3.org/TR/2001/REC-SVG-20010904/DTD/svg10.dtd">
<svg version="1.0" xmlns="http://www.w3.org/2000/svg"
 width="199.000000pt" height="182.000000pt" viewBox="0 0 199.000000 182.000000"
 preserveAspectRatio="xMidYMid meet">

<g transform="translate(0.000000,182.000000) scale(0.100000,-0.100000)"
fill="#000000" stroke="none">
<path d="M20 961 l0 -791 985 0 c869 0 985 2 985 15 0 8 -9 15 -20 15 -19 0
-20 7 -20 140 0 133 1 140 20 140 11 0 20 7 20 15 0 8 -9 15 -20 15 -19 0 -20
7 -20 140 0 133 1 140 20 140 11 0 20 7 20 15 0 8 -9 15 -20 15 -19 0 -20 7
-20 140 0 133 1 140 20 140 11 0 20 5 20 10 0 6 -9 10 -20 10 -19 0 -20 7 -20
140 0 133 1 140 20 140 11 0 20 7 20 15 0 8 -9 15 -20 15 -19 0 -20 7 -20 140
0 133 1 140 20 140 11 0 20 7 20 15 0 13 -112 15 -947 15 -522 0 -965 3 -985
6 l-38 7 0 -792z m628 612 l-3 -138 -287 -3 -288 -2 0 140 0 140 290 0 291 0
-3 -137z m612 -3 l0 -140 -292 2 -293 3 -3 138 -3 137 296 0 295 0 0 -140z
m660 0 l0 -140 -315 0 -315 0 0 140 0 140 315 0 315 0 0 -140z m-1272 -307
l-3 -138 -287 -3 -288 -2 0 140 0 140 290 0 291 0 -3 -137z m612 -3 l0 -140
-292 2 -293 3 -3 138 -3 137 296 0 295 0 0 -140z m660 0 l0 -140 -315 0 -315
0 0 140 0 140 315 0 315 0 0 -140z m-1272 -302 l3 -138 -291 0 -290 0 0 140 0
140 288 -2 287 -3 3 -137z m612 2 l0 -140 -84 0 -84 0 -7 28 c-3 16 -22 44
-41 63 -31 30 -41 34 -89 34 -48 0 -58 -4 -89 -34 -19 -19 -38 -47 -41 -63 -7
-28 -7 -28 -81 -28 l-74 0 0 133 c0 74 3 137 7 140 3 4 136 7 295 7 l288 0 0
-140z m660 0 l0 -140 -315 0 -315 0 0 140 0 140 315 0 315 0 0 -140z m-940
-150 c0 -64 -3 -80 -15 -80 -12 0 -15 13 -15 56 0 51 -2 55 -20 49 -11 -3 -20
-3 -20 1 0 9 51 53 63 54 4 0 7 -36 7 -80z m-332 -162 l3 -138 -291 0 -290 0
0 140 0 140 288 -2 287 -3 3 -137z m178 118 c3 -13 21 -39 40 -57 31 -30 41
-34 89 -34 48 0 58 4 89 34 19 18 37 44 40 57 6 23 10 24 91 24 l85 0 0 -140
0 -140 -295 0 -295 0 0 133 c0 74 3 137 7 140 3 4 37 7 74 7 64 0 69 -2 75
-24z m1094 -116 l0 -140 -109 0 -109 0 -7 28 c-3 16 -22 44 -41 63 -31 30 -41
34 -89 34 -48 0 -58 -4 -89 -34 -19 -19 -38 -47 -41 -63 -6 -27 -8 -28 -76
-28 l-69 0 0 140 0 140 315 0 315 0 0 -140z m-310 -79 c15 -30 13 -38 -26 -81
l-36 -40 36 0 c20 0 36 -4 36 -10 0 -5 -25 -10 -55 -10 -34 0 -55 4 -55 11 0
6 18 28 40 48 22 20 40 44 40 54 0 26 -30 34 -46 13 -19 -27 -38 -16 -19 12
21 28 70 30 85 3z m-960 -231 l0 -140 -290 0 -290 0 0 140 0 140 290 0 290 0
0 -140z m610 0 l0 -140 -295 0 -295 0 0 140 0 140 295 0 295 0 0 -140z m179
118 c5 -13 23 -36 41 -53 27 -26 39 -30 85 -30 46 0 58 4 85 30 18 17 36 40
41 53 8 21 14 22 119 22 l110 0 0 -140 0 -140 -315 0 -315 0 0 140 0 140 70 0
c64 0 71 -2 79 -22z"/>
</g>
</svg>
