<?xml version="1.0" standalone="no"?>
<!DOCTYPE svg PUBLIC "-//W3C//DTD SVG 20010904//EN"
 "http://www.w3.org/TR/2001/REC-SVG-20010904/DTD/svg10.dtd">
<svg version="1.0" xmlns="http://www.w3.org/2000/svg"
 width="199.000000pt" height="225.000000pt" viewBox="0 0 199.000000 225.000000"
 preserveAspectRatio="xMidYMid meet">

<g transform="translate(0.000000,225.000000) scale(0.100000,-0.100000)"
fill="#000000" stroke="none">
<path d="M263 2211 c-18 -12 -37 -35 -44 -55 l-13 -36 -101 0 -100 0 0 -785 0
-785 103 0 c96 0 102 -1 102 -20 0 -53 57 -110 110 -110 53 0 110 57 110 110
0 20 0 20 780 20 687 0 780 2 780 15 0 8 -9 15 -20 15 -19 0 -20 7 -20 140 0
133 1 140 20 140 11 0 20 7 20 15 0 8 -9 15 -20 15 -19 0 -20 7 -20 140 0 133
1 140 20 140 11 0 20 7 20 15 0 8 -9 15 -20 15 -19 0 -20 7 -20 136 0 127 1
136 20 141 26 7 26 19 0 26 -19 5 -20 14 -20 141 0 129 1 136 20 136 11 0 20
7 20 15 0 8 -9 15 -20 15 -19 0 -20 7 -20 140 0 133 1 140 20 140 11 0 20 7
20 15 0 13 -93 15 -778 15 l-778 0 -13 36 c-14 39 -62 74 -101 74 -14 0 -39
-9 -57 -19z m-53 -261 l0 -141 -88 3 -87 3 -3 138 -3 137 91 0 90 0 0 -140z
m410 0 l0 -140 -95 0 -95 0 0 140 0 140 95 0 95 0 0 -140z m660 0 l0 -140
-315 0 -315 0 0 140 0 140 315 0 315 0 0 -140z m640 0 l0 -140 -305 0 -305 0
0 140 0 140 305 0 305 0 0 -140z m-1710 -310 l0 -141 -88 3 -87 3 -3 138 -3
137 91 0 90 0 0 -140z m410 0 l0 -140 -95 0 -95 0 0 140 0 140 95 0 95 0 0
-140z m660 0 l0 -140 -315 0 -315 0 0 140 0 140 315 0 315 0 0 -140z m640 0
l0 -140 -305 0 -305 0 0 140 0 140 305 0 305 0 0 -140z m-1710 -300 l0 -140
-90 0 -90 0 0 133 c0 74 3 137 7 140 3 4 44 7 90 7 l83 0 0 -140z m410 0 l0
-140 -95 0 -95 0 0 140 0 140 95 0 95 0 0 -140z m660 0 l0 -140 -109 0 -109 0
-6 33 c-4 19 -21 48 -42 68 -31 30 -41 34 -89 34 -48 0 -58 -4 -89 -34 -21
-20 -38 -49 -42 -68 l-6 -33 -69 0 -69 0 0 140 0 140 315 0 315 0 0 -140z
m640 0 l0 -140 -305 0 -305 0 0 140 0 140 305 0 305 0 0 -140z m-950 -79 c15
-30 13 -38 -26 -81 l-36 -40 36 0 c20 0 36 -4 36 -10 0 -5 -25 -10 -55 -10
-34 0 -55 4 -55 11 0 6 18 28 40 48 22 20 40 44 40 54 0 26 -30 34 -46 13 -19
-27 -38 -16 -19 12 21 28 70 30 85 3z m-760 -231 l0 -140 -90 0 -90 0 0 133
c0 74 3 137 7 140 3 4 44 7 90 7 l83 0 0 -140z m410 0 l0 -140 -95 0 -95 0 0
140 0 140 95 0 95 0 0 -140z m179 118 c5 -13 23 -36 41 -53 27 -26 39 -30 85
-30 46 0 58 4 85 30 18 17 36 40 41 53 8 21 14 22 119 22 l110 0 0 -140 0
-140 -315 0 -315 0 0 140 0 140 70 0 c64 0 71 -2 79 -22z m1121 -118 l0 -140
-85 0 c-81 0 -85 1 -85 23 0 58 -76 127 -140 127 -64 0 -140 -69 -140 -127 0
-22 -4 -23 -80 -23 l-80 0 0 140 0 140 305 0 305 0 0 -140z m-270 -70 c7 -14
8 -26 0 -39 -7 -13 -7 -22 0 -26 14 -9 13 -48 -2 -63 -17 -17 -63 -15 -78 3
-17 21 -7 29 18 14 11 -7 27 -9 36 -6 24 9 16 41 -12 45 -27 4 -29 19 -2 27
11 3 20 13 20 21 0 20 -27 29 -45 14 -20 -17 -32 -5 -15 15 18 22 67 19 80 -5z
m-1440 -240 l0 -140 -90 0 -90 0 0 140 0 140 90 0 90 0 0 -140z m410 0 l0
-140 -95 0 -95 0 0 140 0 140 95 0 95 0 0 -140z m660 0 l0 -140 -315 0 -315 0
0 140 0 140 315 0 315 0 0 -140z m212 110 c22 -39 74 -70 118 -70 44 0 96 31
118 70 17 30 18 30 105 30 l87 0 0 -140 0 -140 -305 0 -305 0 0 140 0 140 83
0 c81 0 82 -1 99 -30z"/>
<path d="M300 310 c-20 -20 -19 -40 2 -40 6 0 16 7 23 17 15 20 45 11 45 -15
0 -10 -14 -31 -31 -48 -27 -26 -59 -73 -59 -89 0 -3 29 -5 65 -5 51 0 65 3 65
15 0 11 -11 15 -42 15 l-42 0 36 38 c48 48 57 83 29 111 -27 27 -65 27 -91 1z"/>
</g>
</svg>
