<?xml version="1.0" standalone="no"?>
<!DOCTYPE svg PUBLIC "-//W3C//DTD SVG 20010904//EN"
 "http://www.w3.org/TR/2001/REC-SVG-20010904/DTD/svg10.dtd">
<svg version="1.0" xmlns="http://www.w3.org/2000/svg"
 width="200.000000pt" height="223.000000pt" viewBox="0 0 200.000000 223.000000"
 preserveAspectRatio="xMidYMid meet">

<g transform="translate(0.000000,223.000000) scale(0.100000,-0.100000)"
fill="#000000" stroke="none">
<path d="M313 2181 c-18 -12 -37 -35 -44 -55 l-13 -36 -128 0 c-107 0 -128 -2
-128 -15 0 -8 7 -15 15 -15 13 0 15 -22 15 -140 0 -118 -2 -140 -15 -140 -8 0
-15 -7 -15 -15 0 -8 7 -15 15 -15 13 0 15 -22 15 -140 0 -118 -2 -140 -15
-140 -8 0 -15 -4 -15 -10 0 -5 7 -10 15 -10 13 0 15 -22 15 -140 0 -118 -2
-140 -15 -140 -8 0 -15 -7 -15 -15 0 -8 7 -15 15 -15 13 0 15 -22 15 -140 0
-118 -2 -140 -15 -140 -8 0 -15 -7 -15 -15 0 -8 7 -15 15 -15 13 0 15 -22 15
-140 0 -118 -2 -140 -15 -140 -8 0 -15 -7 -15 -15 0 -13 21 -15 130 -15 124 0
130 -1 130 -20 0 -53 57 -110 110 -110 53 0 110 57 110 110 0 20 1 20 760 20
534 0 760 3 760 11 0 6 -7 17 -15 25 -22 22 -22 246 0 268 19 18 19 24 0 42
-22 22 -22 246 0 268 19 19 19 32 0 40 -23 8 -22 248 1 270 14 15 14 17 0 32
-23 22 -23 245 -1 268 19 18 19 24 0 42 -22 22 -22 246 0 268 8 8 15 19 15 25
0 8 -226 11 -758 11 l-758 0 -13 36 c-14 39 -62 74 -101 74 -14 0 -39 -9 -57
-19z m-53 -261 l0 -140 -100 0 -100 0 0 140 0 140 100 0 100 0 0 -140z m410 0
l0 -140 -95 0 -95 0 0 140 0 140 95 0 95 0 0 -140z m620 0 l0 -140 -295 0
-295 0 0 140 0 140 295 0 295 0 0 -140z m660 0 l0 -140 -115 0 c-112 0 -115 0
-121 24 -3 13 -21 39 -40 57 -31 30 -41 34 -89 34 -48 0 -58 -4 -89 -34 -19
-18 -37 -44 -40 -57 -6 -22 -11 -24 -71 -24 l-65 0 0 140 0 140 315 0 315 0 0
-140z m-330 -119 c0 -30 5 -52 13 -55 10 -5 10 -7 0 -12 -7 -3 -13 -14 -13
-25 0 -10 -7 -19 -15 -19 -8 0 -15 9 -15 20 0 15 -7 20 -29 20 -17 0 -32 4
-35 8 -7 12 65 112 81 112 9 0 13 -15 13 -49z m-1360 -191 l0 -140 -100 0
-100 0 0 140 0 140 100 0 100 0 0 -140z m410 0 l0 -140 -95 0 -95 0 0 140 0
140 95 0 95 0 0 -140z m620 0 l0 -140 -292 2 -293 3 -3 138 -3 137 296 0 295
0 0 -140z m166 116 c3 -13 21 -39 40 -57 31 -30 41 -34 89 -34 48 0 58 4 89
34 19 18 37 44 40 57 6 24 9 24 121 24 l116 0 -3 -137 -3 -138 -112 -3 -111
-3 -7 29 c-3 16 -22 44 -41 63 -31 30 -41 34 -89 34 -48 0 -58 -4 -89 -34 -19
-19 -38 -47 -41 -63 -6 -27 -8 -28 -71 -28 l-64 0 0 140 0 140 65 0 c60 0 65
-2 71 -24z m164 -201 c7 -8 10 -25 6 -39 -3 -14 -2 -28 4 -31 15 -9 12 -42 -6
-59 -18 -19 -65 -21 -82 -4 -16 16 -15 28 3 28 8 0 15 -5 15 -11 0 -6 10 -9
22 -7 30 4 37 38 9 45 -26 7 -27 15 -1 31 11 7 17 18 14 27 -7 17 -44 21 -44
5 0 -5 -7 -10 -15 -10 -13 0 -14 4 -5 20 13 24 62 27 80 5z m-1360 -215 l0
-140 -100 0 -100 0 0 140 0 140 100 0 100 0 0 -140z m410 0 l0 -140 -95 0 -95
0 0 140 0 140 95 0 95 0 0 -140z m620 0 l0 -140 -295 0 -295 0 0 133 c0 74 3
137 7 140 3 4 136 7 295 7 l288 0 0 -140z m165 112 c3 -16 22 -44 41 -63 31
-30 41 -34 89 -34 48 0 58 4 89 34 19 19 38 47 41 63 l7 29 111 -3 112 -3 3
-137 3 -138 -115 0 -114 0 -7 28 c-3 16 -22 44 -41 63 -31 30 -41 34 -89 34
-48 0 -58 -4 -89 -34 -19 -19 -38 -47 -41 -63 -6 -27 -8 -28 -71 -28 l-64 0 0
140 0 140 64 0 c63 0 65 -1 71 -28z m175 -201 c15 -30 13 -38 -26 -81 l-36
-40 36 0 c20 0 36 -4 36 -10 0 -5 -25 -10 -55 -10 -33 0 -55 4 -55 11 0 6 18
28 40 50 22 22 40 46 40 55 0 22 -31 30 -45 11 -13 -18 -35 -23 -35 -8 0 38
81 56 100 22z m-1370 -221 l0 -140 -100 0 -100 0 0 140 0 140 100 0 100 0 0
-140z m410 0 l0 -140 -95 0 -95 0 0 140 0 140 95 0 95 0 0 -140z m620 0 l0
-140 -295 0 -295 0 0 140 0 140 295 0 295 0 0 -140z m166 116 c3 -13 21 -39
40 -57 31 -30 41 -34 89 -34 48 0 58 4 89 34 19 18 37 44 40 57 6 24 9 24 121
24 l115 0 0 -140 0 -140 -315 0 -315 0 0 140 0 140 65 0 c60 0 65 -2 71 -24z
m-1196 -426 l0 -140 -100 0 -100 0 0 140 0 140 100 0 100 0 0 -140z m410 0 l0
-140 -95 0 -95 0 0 140 0 140 95 0 95 0 0 -140z m620 0 l0 -140 -295 0 -295 0
0 140 0 140 295 0 295 0 0 -140z m660 0 l0 -140 -315 0 -315 0 0 140 0 140
315 0 315 0 0 -140z"/>
<path d="M1566 1775 c-16 -24 -16 -25 4 -25 15 0 20 7 20 25 0 14 -2 25 -4 25
-2 0 -11 -11 -20 -25z"/>
<path d="M361 222 c-22 -38 -41 -74 -41 -80 0 -7 16 -12 40 -12 33 0 40 -3 40
-20 0 -11 7 -20 15 -20 8 0 15 9 15 20 0 11 7 20 15 20 8 0 15 7 15 15 0 8 -7
15 -15 15 -12 0 -15 14 -15 65 0 86 -16 85 -69 -3z m39 -32 c0 -23 -4 -30 -20
-30 -24 0 -25 8 -4 38 20 29 24 28 24 -8z"/>
</g>
</svg>
