<?xml version="1.0" standalone="no"?>
<!DOCTYPE svg PUBLIC "-//W3C//DTD SVG 20010904//EN"
 "http://www.w3.org/TR/2001/REC-SVG-20010904/DTD/svg10.dtd">
<svg version="1.0" xmlns="http://www.w3.org/2000/svg"
 width="199.000000pt" height="171.000000pt" viewBox="0 0 199.000000 171.000000"
 preserveAspectRatio="xMidYMid meet">

<g transform="translate(0.000000,171.000000) scale(0.100000,-0.100000)"
fill="#000000" stroke="none">
<path d="M300 1683 c-25 -10 -71 -57 -81 -82 -9 -23 -11 -24 -104 -18 l-95 5
0 -789 0 -789 985 0 c869 0 985 2 985 15 0 8 -9 15 -20 15 -19 0 -20 7 -20
140 0 133 1 140 20 140 11 0 20 7 20 15 0 8 -9 15 -20 15 -19 0 -20 7 -20 140
0 133 1 140 20 140 11 0 20 7 20 15 0 8 -9 15 -20 15 -19 0 -20 7 -20 140 0
133 1 140 20 140 11 0 20 5 20 10 0 6 -9 10 -20 10 -19 0 -20 7 -20 140 0 133
1 140 20 140 11 0 20 7 20 15 0 8 -9 15 -20 15 -19 0 -20 7 -20 140 0 133 1
140 20 140 11 0 20 7 20 15 0 13 -91 15 -755 15 l-755 0 -9 23 c-17 42 -66 79
-113 83 -24 2 -50 1 -58 -3z m70 -123 c0 -64 -3 -80 -15 -80 -12 0 -15 13 -15
56 0 51 -2 55 -20 49 -26 -8 -25 4 3 32 40 39 47 30 47 -57z m-155 -38 c3 -16
22 -44 41 -63 31 -30 41 -34 89 -34 48 0 58 4 89 34 19 19 38 47 41 63 l7 28
84 0 85 0 -3 -137 -3 -138 -287 -3 -288 -2 0 140 0 140 69 0 c68 0 70 -1 76
-28z m1045 -112 l0 -140 -85 0 c-81 0 -85 1 -91 24 -3 13 -21 39 -40 57 -31
30 -41 34 -89 34 -48 0 -58 -4 -89 -34 -19 -18 -37 -44 -41 -58 -5 -23 -9 -24
-78 -21 l-72 3 -3 138 -3 137 296 0 295 0 0 -140z m660 0 l0 -140 -315 0 -315
0 0 140 0 140 315 0 315 0 0 -140z m-930 -85 c7 -8 10 -25 6 -39 -3 -14 -2
-28 4 -31 15 -9 12 -42 -6 -59 -18 -19 -65 -21 -82 -4 -16 16 -15 28 3 28 8 0
15 -5 15 -11 0 -6 10 -9 22 -7 30 4 37 38 9 45 -26 7 -27 15 -1 31 11 7 17 18
14 27 -7 17 -44 21 -44 5 0 -5 -7 -10 -15 -10 -13 0 -14 4 -5 20 13 24 62 27
80 5z m-342 -222 l-3 -138 -287 -3 -288 -2 0 140 0 140 290 0 291 0 -3 -137z
m178 113 c3 -13 21 -39 40 -57 31 -30 41 -34 89 -34 48 0 58 4 89 34 19 18 37
44 40 57 6 23 10 24 91 24 l85 0 0 -140 0 -140 -84 0 -84 0 -7 28 c-3 16 -22
44 -41 63 -31 30 -41 34 -89 34 -48 0 -58 -4 -89 -34 -19 -19 -38 -47 -41 -63
l-7 -29 -71 3 -72 3 -3 138 -3 137 76 0 c70 0 75 -1 81 -24z m1094 -116 l0
-140 -315 0 -315 0 0 140 0 140 315 0 315 0 0 -140z m-920 -89 c15 -30 13 -38
-26 -81 l-36 -40 36 0 c20 0 36 -4 36 -10 0 -5 -25 -10 -55 -10 -33 0 -55 4
-55 11 0 6 18 28 40 50 22 22 40 46 40 55 0 22 -31 30 -45 11 -13 -18 -35 -23
-35 -8 0 38 81 56 100 22z m-352 -213 l3 -138 -291 0 -290 0 0 140 0 140 288
-2 287 -3 3 -137z m177 114 c3 -16 22 -44 41 -63 31 -30 41 -34 89 -34 48 0
58 4 89 34 19 19 38 47 41 63 l7 28 84 0 84 0 0 -140 0 -140 -295 0 -295 0 0
133 c0 74 3 137 7 140 3 4 37 7 74 7 66 0 68 -1 74 -28z m1095 -112 l0 -140
-109 0 -109 0 -7 28 c-3 16 -22 44 -41 63 -31 30 -41 34 -89 34 -48 0 -58 -4
-89 -34 -19 -19 -38 -47 -41 -63 -6 -27 -8 -28 -76 -28 l-69 0 0 140 0 140
315 0 315 0 0 -140z m-320 -119 c0 -30 5 -52 13 -55 10 -5 10 -7 0 -12 -7 -3
-13 -14 -13 -25 0 -10 -7 -19 -15 -19 -8 0 -15 9 -15 20 0 16 -7 20 -30 20
-38 0 -38 13 3 72 42 62 57 62 57 -1z m-952 -193 l3 -138 -291 0 -290 0 0 140
0 140 288 -2 287 -3 3 -137z m612 2 l0 -140 -295 0 -295 0 0 133 c0 74 3 137
7 140 3 4 136 7 295 7 l288 0 0 -140z m176 116 c3 -13 21 -39 40 -57 31 -30
41 -34 89 -34 48 0 58 4 89 34 19 18 37 44 40 57 6 23 9 24 116 24 l110 0 0
-140 0 -140 -315 0 -315 0 0 140 0 140 70 0 c65 0 70 -2 76 -24z m-786 -426
l0 -140 -290 0 -290 0 0 140 0 140 290 0 290 0 0 -140z m610 0 l0 -140 -295 0
-295 0 0 140 0 140 295 0 295 0 0 -140z m660 0 l0 -140 -315 0 -315 0 0 140 0
140 315 0 315 0 0 -140z"/>
<path d="M1547 655 c-17 -24 -17 -25 3 -25 15 0 20 6 20 25 0 30 -1 30 -23 0z"/>
</g>
</svg>
