<?xml version="1.0" standalone="no"?>
<!DOCTYPE svg PUBLIC "-//W3C//DTD SVG 20010904//EN"
 "http://www.w3.org/TR/2001/REC-SVG-20010904/DTD/svg10.dtd">
<svg version="1.0" xmlns="http://www.w3.org/2000/svg"
 width="198.000000pt" height="221.000000pt" viewBox="0 0 198.000000 221.000000"
 preserveAspectRatio="xMidYMid meet">

<g transform="translate(0.000000,221.000000) scale(0.100000,-0.100000)"
fill="#000000" stroke="none">
<path d="M303 2151 c-18 -12 -37 -35 -44 -55 l-13 -36 -123 0 c-103 0 -123 -2
-123 -15 0 -8 5 -15 10 -15 6 0 10 -53 10 -140 0 -87 -4 -140 -10 -140 -5 0
-10 -7 -10 -15 0 -8 5 -15 10 -15 16 0 13 -277 -2 -284 -10 -5 -10 -7 0 -12
15 -7 18 -284 2 -284 -5 0 -10 -7 -10 -15 0 -8 5 -15 10 -15 6 0 10 -53 10
-140 0 -87 -4 -140 -10 -140 -5 0 -10 -7 -10 -15 0 -8 5 -15 10 -15 6 0 10
-53 10 -140 0 -87 -4 -140 -10 -140 -5 0 -10 -7 -10 -15 0 -13 21 -15 125 -15
119 0 125 -1 125 -20 0 -53 57 -110 110 -110 53 0 110 57 110 110 0 20 1 20
756 20 l756 0 -8 23 c-7 18 -8 109 -5 300 0 12 -2 76 -5 141 -4 80 -1 128 7
147 9 22 9 32 0 43 -9 10 -11 53 -7 143 2 70 4 136 4 146 0 9 0 76 0 147 0 72
0 141 0 155 0 14 0 82 -1 153 -1 70 3 137 7 150 l8 22 -754 0 -754 0 -13 36
c-14 39 -62 74 -101 74 -14 0 -39 -9 -57 -19z m-53 -261 l0 -140 -100 0 -100
0 0 140 0 140 100 0 100 0 0 -140z m410 0 l0 -140 -95 0 -95 0 0 140 0 140 95
0 95 0 0 -140z m620 0 l0 -140 -295 0 -295 0 0 140 0 140 295 0 295 0 0 -140z
m660 0 l0 -140 -315 0 -315 0 0 140 0 140 315 0 315 0 0 -140z m-1690 -310 l0
-140 -100 0 -100 0 0 140 0 140 100 0 100 0 0 -140z m410 0 l0 -140 -95 0 -95
0 0 140 0 140 95 0 95 0 0 -140z m620 0 l0 -140 -89 0 -89 0 -7 28 c-3 16 -22
44 -41 63 -31 30 -41 34 -89 34 -48 0 -58 -4 -89 -34 -19 -19 -38 -47 -41 -63
-7 -29 -7 -29 -73 -26 l-67 3 -3 138 -3 137 296 0 295 0 0 -140z m658 3 l-3
-138 -312 -3 -313 -2 0 140 0 140 315 0 316 0 -3 -137z m-940 -85 c23 -23 13
-59 -25 -94 l-37 -34 37 0 c20 0 37 -4 37 -10 0 -5 -25 -10 -55 -10 -30 0 -55
2 -55 5 0 2 20 27 45 55 27 30 42 56 39 65 -8 19 -40 19 -48 0 -7 -18 -26 -20
-26 -2 0 21 22 37 50 37 14 0 31 -5 38 -12z m-748 -218 l0 -140 -100 0 -100 0
0 140 0 140 100 0 100 0 0 -140z m410 0 l0 -140 -95 0 -95 0 0 140 0 140 95 0
95 0 0 -140z m175 112 c3 -16 22 -44 41 -63 31 -30 41 -34 89 -34 48 0 58 4
89 34 19 19 38 47 41 63 l7 28 89 0 89 0 0 -140 0 -140 -295 0 -295 0 0 133
c0 74 3 137 7 140 3 4 34 7 69 7 60 0 63 -1 69 -28z m1103 -114 l3 -138 -115
0 -114 0 -7 28 c-3 16 -22 44 -41 63 -31 30 -41 34 -89 34 -48 0 -58 -4 -89
-34 -19 -19 -38 -47 -41 -63 -6 -27 -8 -28 -71 -28 l-64 0 0 140 0 140 313 -2
312 -3 3 -137z m-328 -117 c0 -30 5 -52 13 -55 10 -5 10 -7 0 -12 -7 -3 -13
-14 -13 -25 0 -10 -7 -19 -15 -19 -8 0 -15 9 -15 20 0 16 -7 20 -35 20 -19 0
-35 3 -35 7 0 17 73 113 86 113 10 0 14 -14 14 -49z m-1360 -191 l0 -140 -100
0 -100 0 0 140 0 140 100 0 100 0 0 -140z m410 0 l0 -140 -95 0 -95 0 0 140 0
140 95 0 95 0 0 -140z m620 0 l0 -140 -295 0 -295 0 0 140 0 140 295 0 295 0
0 -140z m166 116 c3 -13 21 -39 40 -57 31 -30 41 -34 89 -34 48 0 58 4 89 34
19 18 37 44 40 57 6 24 9 24 121 24 l115 0 0 -140 0 -140 -114 0 -114 0 -7 28
c-3 16 -22 44 -41 63 -31 30 -41 34 -89 34 -48 0 -58 -4 -89 -34 -19 -19 -38
-47 -41 -63 -6 -27 -8 -28 -71 -28 l-64 0 0 140 0 140 65 0 c60 0 65 -2 71
-24z m164 -191 c7 -8 10 -26 8 -40 -3 -14 -1 -28 3 -31 14 -8 10 -41 -7 -58
-18 -19 -65 -21 -82 -4 -16 16 -15 28 3 28 8 0 15 -5 15 -11 0 -6 10 -9 22 -7
30 4 37 38 9 45 -25 6 -27 18 -6 27 17 6 21 46 5 46 -6 0 -19 -5 -30 -12 -24
-15 -37 -4 -20 17 16 19 64 19 80 0z m-1360 -235 l0 -140 -100 0 -100 0 0 140
0 140 100 0 100 0 0 -140z m410 0 l0 -140 -95 0 -95 0 0 140 0 140 95 0 95 0
0 -140z m620 0 l0 -140 -295 0 -295 0 0 140 0 140 295 0 295 0 0 -140z m169
118 c5 -13 23 -36 41 -53 27 -26 39 -30 85 -30 46 0 58 4 85 30 18 17 36 40
41 53 8 21 13 22 124 22 l115 0 0 -140 0 -140 -315 0 -315 0 0 140 0 140 65 0
c59 0 66 -2 74 -22z"/>
<path d="M1556 1135 c-16 -24 -16 -25 4 -25 15 0 20 7 20 25 0 14 -2 25 -4 25
-2 0 -11 -11 -20 -25z"/>
<path d="M351 172 c-22 -38 -41 -74 -41 -80 0 -7 16 -12 40 -12 33 0 40 -3 40
-20 0 -11 7 -20 15 -20 8 0 15 9 15 20 0 11 7 20 15 20 8 0 15 7 15 15 0 8 -7
15 -15 15 -12 0 -15 14 -15 65 0 86 -16 85 -69 -3z m39 -32 c0 -26 -4 -30 -26
-30 l-25 0 21 30 c12 17 23 30 26 30 2 0 4 -13 4 -30z"/>
</g>
</svg>
