<?xml version="1.0" standalone="no"?>
<!DOCTYPE svg PUBLIC "-//W3C//DTD SVG 20010904//EN"
 "http://www.w3.org/TR/2001/REC-SVG-20010904/DTD/svg10.dtd">
<svg version="1.0" xmlns="http://www.w3.org/2000/svg"
 width="198.000000pt" height="219.000000pt" viewBox="0 0 198.000000 219.000000"
 preserveAspectRatio="xMidYMid meet">

<g transform="translate(0.000000,219.000000) scale(0.100000,-0.100000)"
fill="#000000" stroke="none">
<path d="M313 2161 c-18 -12 -37 -35 -44 -55 l-13 -36 -128 0 c-107 0 -128 -2
-128 -15 0 -8 7 -15 15 -15 13 0 15 -22 15 -140 0 -118 -2 -140 -15 -140 -8 0
-15 -7 -15 -15 0 -8 7 -15 15 -15 13 0 15 -22 15 -140 0 -118 -2 -140 -15
-140 -8 0 -15 -4 -15 -10 0 -5 7 -10 15 -10 13 0 15 -22 15 -140 0 -118 -2
-140 -15 -140 -8 0 -15 -7 -15 -15 0 -8 7 -15 15 -15 13 0 15 -22 15 -140 0
-118 -2 -140 -15 -140 -8 0 -15 -7 -15 -15 0 -8 7 -15 15 -15 13 0 15 -22 15
-140 0 -118 -2 -140 -15 -140 -8 0 -15 -7 -15 -15 0 -13 21 -15 130 -15 124 0
130 -1 130 -20 0 -53 57 -110 110 -110 53 0 110 57 110 110 0 20 1 20 748 20
l747 0 0 785 0 785 -745 0 -746 0 -13 36 c-14 39 -62 74 -101 74 -14 0 -39 -9
-57 -19z m-53 -261 l0 -140 -100 0 -100 0 0 140 0 140 100 0 100 0 0 -140z
m410 0 l0 -140 -95 0 -95 0 0 140 0 140 95 0 95 0 0 -140z m620 0 l0 -140
-295 0 -295 0 0 140 0 140 295 0 295 0 0 -140z m660 0 l0 -140 -315 0 -315 0
0 140 0 140 315 0 315 0 0 -140z m-1690 -310 l0 -140 -100 0 -100 0 0 140 0
140 100 0 100 0 0 -140z m410 0 l0 -140 -95 0 -95 0 0 140 0 140 95 0 95 0 0
-140z m620 0 l0 -140 -292 2 -293 3 -3 138 -3 137 296 0 295 0 0 -140z m658 3
l-3 -138 -312 -3 -313 -2 0 140 0 140 315 0 316 0 -3 -137z m-1688 -303 l0
-140 -100 0 -100 0 0 140 0 140 100 0 100 0 0 -140z m410 0 l0 -140 -95 0 -95
0 0 140 0 140 95 0 95 0 0 -140z m620 0 l0 -140 -295 0 -295 0 0 133 c0 74 3
137 7 140 3 4 136 7 295 7 l288 0 0 -140z m658 -2 l3 -138 -115 0 -114 0 -7
28 c-3 16 -22 44 -41 63 -31 30 -41 34 -89 34 -48 0 -58 -4 -89 -34 -19 -19
-38 -47 -41 -63 -6 -27 -8 -28 -71 -28 l-64 0 0 140 0 140 313 -2 312 -3 3
-137z m-328 -83 c7 -8 10 -26 8 -40 -3 -14 -1 -28 3 -31 14 -8 10 -41 -7 -58
-18 -19 -65 -21 -82 -4 -16 16 -15 28 3 28 8 0 15 -5 15 -11 0 -6 10 -9 22 -7
30 4 37 38 9 45 -25 6 -27 18 -6 27 17 6 21 46 5 46 -6 0 -19 -5 -30 -12 -24
-15 -37 -4 -20 17 16 19 64 19 80 0z m-1360 -225 l0 -140 -100 0 -100 0 0 140
0 140 100 0 100 0 0 -140z m410 0 l0 -140 -95 0 -95 0 0 140 0 140 95 0 95 0
0 -140z m620 0 l0 -140 -295 0 -295 0 0 140 0 140 295 0 295 0 0 -140z m166
116 c3 -13 21 -39 40 -57 31 -30 41 -34 89 -34 48 0 58 4 89 34 19 18 37 44
40 57 6 24 9 24 121 24 l115 0 0 -140 0 -140 -114 0 -114 0 -7 28 c-3 16 -22
44 -41 63 -31 30 -41 34 -89 34 -48 0 -58 -4 -89 -34 -19 -19 -38 -47 -41 -63
-6 -27 -8 -28 -71 -28 l-64 0 0 140 0 140 65 0 c60 0 65 -2 71 -24z m174 -195
c15 -30 13 -38 -26 -81 l-36 -40 36 0 c20 0 36 -4 36 -10 0 -5 -25 -10 -55
-10 -67 0 -69 10 -14 66 27 28 40 48 36 58 -8 20 -36 21 -43 1 -6 -14 -34 -22
-34 -9 0 24 24 44 55 44 24 0 38 -6 45 -19z m-1370 -231 l0 -140 -100 0 -100
0 0 140 0 140 100 0 100 0 0 -140z m410 0 l0 -140 -95 0 -95 0 0 140 0 140 95
0 95 0 0 -140z m620 0 l0 -140 -295 0 -295 0 0 140 0 140 295 0 295 0 0 -140z
m169 118 c5 -13 23 -36 41 -53 27 -26 39 -30 85 -30 46 0 58 4 85 30 18 17 36
40 41 53 8 21 13 22 124 22 l115 0 0 -140 0 -140 -315 0 -315 0 0 140 0 140
65 0 c59 0 66 -2 74 -22z"/>
<path d="M361 182 c-22 -38 -41 -74 -41 -80 0 -7 16 -12 40 -12 33 0 40 -3 40
-20 0 -11 7 -20 15 -20 8 0 15 9 15 20 0 11 7 20 15 20 8 0 15 7 15 15 0 8 -7
15 -15 15 -12 0 -15 14 -15 65 0 86 -16 85 -69 -3z m39 -32 c0 -26 -4 -30 -26
-30 l-25 0 21 30 c12 17 23 30 26 30 2 0 4 -13 4 -30z"/>
</g>
</svg>
