<?xml version="1.0" standalone="no"?>
<!DOCTYPE svg PUBLIC "-//W3C//DTD SVG 20010904//EN"
 "http://www.w3.org/TR/2001/REC-SVG-20010904/DTD/svg10.dtd">
<svg version="1.0" xmlns="http://www.w3.org/2000/svg"
 width="199.000000pt" height="166.000000pt" viewBox="0 0 199.000000 166.000000"
 preserveAspectRatio="xMidYMid meet">

<g transform="translate(0.000000,166.000000) scale(0.100000,-0.100000)"
fill="#000000" stroke="none">
<path d="M30 821 l0 -791 980 0 c864 0 980 2 980 15 0 8 -7 15 -15 15 -13 0
-15 22 -15 140 0 118 2 140 15 140 8 0 15 7 15 15 0 8 -7 15 -15 15 -13 0 -15
22 -15 140 0 118 2 140 15 140 8 0 15 7 15 15 0 8 -7 15 -15 15 -13 0 -15 22
-15 140 0 118 2 140 15 140 8 0 15 5 15 10 0 6 -7 10 -15 10 -13 0 -15 22 -15
140 0 118 2 140 15 140 8 0 15 7 15 15 0 8 -7 15 -15 15 -13 0 -15 22 -15 140
0 118 2 140 15 140 8 0 15 7 15 15 0 13 -111 15 -942 15 -519 0 -960 3 -980 6
l-38 7 0 -792z m628 612 l-3 -138 -287 -3 -288 -2 0 140 0 140 290 0 291 0 -3
-137z m612 -3 l0 -140 -85 0 c-81 0 -85 1 -91 24 -3 13 -21 39 -40 57 -31 30
-41 34 -89 34 -48 0 -58 -4 -89 -34 -19 -18 -37 -44 -41 -58 -5 -23 -9 -24
-78 -21 l-72 3 -3 138 -3 137 296 0 295 0 0 -140z m660 0 l0 -140 -315 0 -315
0 0 140 0 140 315 0 315 0 0 -140z m-930 -85 c7 -8 10 -25 6 -39 -3 -14 -2
-28 4 -31 15 -9 12 -42 -6 -59 -18 -19 -65 -21 -82 -4 -16 16 -15 28 3 28 8 0
15 -5 15 -11 0 -6 10 -9 22 -7 30 4 37 38 9 45 -26 7 -27 15 -1 31 11 7 17 18
14 27 -7 17 -44 21 -44 5 0 -5 -7 -10 -15 -10 -13 0 -14 4 -5 20 13 24 62 27
80 5z m-342 -222 l-3 -138 -82 -3 -81 -3 -7 29 c-3 16 -22 44 -41 63 -31 30
-41 34 -89 34 -48 0 -58 -4 -89 -34 -19 -19 -38 -47 -41 -63 -6 -27 -8 -28
-76 -28 l-69 0 0 140 0 140 290 0 291 0 -3 -137z m178 113 c3 -13 21 -39 40
-57 31 -30 41 -34 89 -34 48 0 58 4 89 34 19 18 37 44 40 57 6 23 10 24 91 24
l85 0 0 -140 0 -140 -292 2 -293 3 -3 138 -3 137 76 0 c70 0 75 -1 81 -24z
m1094 -116 l0 -140 -315 0 -315 0 0 140 0 140 315 0 315 0 0 -140z m-1550
-150 c0 -64 -3 -80 -15 -80 -12 0 -15 13 -15 56 0 51 -2 55 -20 49 -26 -8 -25
4 3 32 40 39 47 30 47 -57z m-155 -38 c3 -16 22 -44 41 -63 31 -30 41 -34 89
-34 48 0 58 4 89 34 19 19 38 47 41 63 l7 29 81 -3 82 -3 3 -137 3 -138 -291
0 -290 0 0 140 0 140 69 0 c68 0 70 -1 76 -28z m1045 -112 l0 -140 -84 0 -84
0 -7 28 c-3 16 -22 44 -41 63 -31 30 -41 34 -89 34 -48 0 -58 -4 -89 -34 -19
-19 -38 -47 -41 -63 -7 -28 -7 -28 -81 -28 l-74 0 0 133 c0 74 3 137 7 140 3
4 136 7 295 7 l288 0 0 -140z m660 0 l0 -140 -315 0 -315 0 0 140 0 140 315 0
315 0 0 -140z m-920 -89 c15 -30 13 -38 -26 -81 l-36 -40 36 0 c20 0 36 -4 36
-10 0 -5 -25 -10 -55 -10 -33 0 -55 4 -55 11 0 6 18 28 40 50 22 22 40 46 40
55 0 22 -31 30 -45 11 -13 -18 -35 -23 -35 -8 0 38 81 56 100 22z m-352 -223
l3 -138 -291 0 -290 0 0 140 0 140 288 -2 287 -3 3 -137z m178 118 c3 -13 21
-39 40 -57 31 -30 41 -34 89 -34 48 0 58 4 89 34 19 18 37 44 40 57 6 23 10
24 91 24 l85 0 0 -140 0 -140 -295 0 -295 0 0 133 c0 74 3 137 7 140 3 4 37 7
74 7 64 0 69 -2 75 -24z m1094 -116 l0 -140 -315 0 -315 0 0 140 0 140 315 0
315 0 0 -140z m-1270 -310 l0 -140 -290 0 -290 0 0 140 0 140 290 0 290 0 0
-140z m610 0 l0 -140 -295 0 -295 0 0 140 0 140 295 0 295 0 0 -140z m660 0
l0 -140 -315 0 -315 0 0 140 0 140 315 0 315 0 0 -140z"/>
</g>
</svg>
