<?xml version="1.0" standalone="no"?>
<!DOCTYPE svg PUBLIC "-//W3C//DTD SVG 20010904//EN"
 "http://www.w3.org/TR/2001/REC-SVG-20010904/DTD/svg10.dtd">
<svg version="1.0" xmlns="http://www.w3.org/2000/svg"
 width="198.000000pt" height="216.000000pt" viewBox="0 0 198.000000 216.000000"
 preserveAspectRatio="xMidYMid meet">

<g transform="translate(0.000000,216.000000) scale(0.100000,-0.100000)"
fill="#000000" stroke="none">
<path d="M283 2111 c-18 -12 -37 -35 -45 -57 l-13 -37 -97 6 -98 5 0 -789 0
-789 100 0 c94 0 100 -1 100 -20 0 -53 57 -110 110 -110 53 0 110 57 110 110
0 20 0 20 765 20 673 0 765 2 765 15 0 8 -4 15 -10 15 -6 0 -10 53 -10 140 0
87 4 140 10 140 6 0 10 7 10 15 0 8 -4 15 -10 15 -6 0 -10 53 -10 140 0 87 4
140 10 140 6 0 10 7 10 15 0 8 -4 15 -10 15 -16 0 -13 277 3 284 10 5 10 7 0
12 -16 7 -19 284 -3 284 6 0 10 7 10 15 0 8 -4 15 -10 15 -6 0 -10 53 -10 140
0 87 4 140 10 140 6 0 10 7 10 15 0 13 -91 15 -763 15 l-763 0 -13 36 c-14 39
-62 74 -101 74 -14 0 -39 -9 -57 -19z m-53 -261 l0 -140 -75 0 -75 0 0 140 0
140 75 0 75 0 0 -140z m428 3 l-3 -138 -102 -3 -103 -3 0 141 0 140 105 0 106
0 -3 -137z m612 -3 l0 -140 -85 0 c-81 0 -85 1 -91 24 -3 13 -21 39 -40 57
-31 30 -41 34 -89 34 -48 0 -58 -4 -89 -34 -19 -18 -37 -44 -41 -58 -5 -23 -9
-24 -78 -21 l-72 3 -3 138 -3 137 296 0 295 0 0 -140z m660 0 l0 -140 -315 0
-315 0 0 140 0 140 315 0 315 0 0 -140z m-920 -89 c15 -30 13 -38 -26 -81
l-36 -40 36 0 c20 0 36 -4 36 -10 0 -5 -25 -10 -55 -10 -33 0 -55 4 -55 11 0
6 18 28 40 50 22 22 40 46 40 55 0 22 -31 30 -45 11 -13 -18 -35 -23 -35 -8 0
38 81 56 100 22z m-780 -221 l0 -140 -75 0 -75 0 0 140 0 140 75 0 75 0 0
-140z m428 3 l-3 -138 -102 -3 -103 -3 0 141 0 140 105 0 106 0 -3 -137z m178
113 c3 -13 21 -39 40 -57 31 -30 41 -34 89 -34 48 0 58 4 89 34 19 18 37 44
40 57 6 23 10 24 91 24 l85 0 0 -140 0 -140 -292 2 -293 3 -3 138 -3 137 76 0
c70 0 75 -1 81 -24z m1094 -116 l0 -140 -109 0 -109 0 -7 28 c-3 16 -22 44
-41 63 -31 30 -41 34 -89 34 -48 0 -58 -4 -89 -34 -19 -19 -38 -47 -41 -63 -6
-27 -8 -28 -76 -28 l-69 0 0 140 0 140 315 0 315 0 0 -140z m-320 -119 c0 -30
5 -52 13 -55 10 -5 10 -7 0 -12 -7 -3 -13 -14 -13 -25 0 -10 -7 -19 -15 -19
-8 0 -15 9 -15 20 0 16 -7 20 -30 20 -38 0 -38 13 3 72 42 62 57 62 57 -1z
m-1380 -181 l0 -140 -75 0 -75 0 0 140 0 140 75 0 75 0 0 -140z m428 -2 l3
-138 -106 0 -105 0 0 140 0 141 103 -3 102 -3 3 -137z m612 2 l0 -140 -295 0
-295 0 0 133 c0 74 3 137 7 140 3 4 136 7 295 7 l288 0 0 -140z m175 112 c3
-16 22 -44 41 -63 31 -30 41 -34 89 -34 48 0 58 4 89 34 19 19 38 47 41 63 l7
28 109 0 109 0 0 -140 0 -140 -109 0 -109 0 -7 28 c-3 16 -22 44 -41 63 -31
30 -41 34 -89 34 -48 0 -58 -4 -89 -34 -19 -19 -38 -47 -41 -63 -6 -27 -8 -28
-76 -28 l-69 0 0 140 0 140 69 0 c68 0 70 -1 76 -28z m165 -197 c7 -8 10 -26
8 -40 -3 -14 -1 -28 3 -31 13 -8 11 -48 -3 -62 -20 -20 -76 -15 -88 8 -8 15
-8 20 3 20 7 0 18 -5 24 -11 16 -16 43 -3 43 21 0 13 -7 20 -20 20 -26 0 -25
8 3 30 17 15 19 21 10 31 -10 10 -18 10 -38 -1 -30 -16 -42 -8 -20 14 21 20
59 21 75 1z m-1380 -225 l0 -140 -75 0 -75 0 0 140 0 140 75 0 75 0 0 -140z
m428 -2 l3 -138 -106 0 -105 0 0 140 0 141 103 -3 102 -3 3 -137z m612 2 l0
-140 -295 0 -295 0 0 133 c0 74 3 137 7 140 3 4 136 7 295 7 l288 0 0 -140z
m176 116 c3 -13 21 -39 40 -57 31 -30 41 -34 89 -34 48 0 58 4 89 34 19 18 37
44 40 57 6 23 9 24 116 24 l110 0 0 -140 0 -140 -315 0 -315 0 0 140 0 140 70
0 c65 0 70 -2 76 -24z m-1216 -426 l0 -140 -75 0 -75 0 0 140 0 140 75 0 75 0
0 -140z m430 0 l0 -140 -105 0 -105 0 0 140 0 140 105 0 105 0 0 -140z m610 0
l0 -140 -295 0 -295 0 0 140 0 140 295 0 295 0 0 -140z m660 0 l0 -140 -315 0
-315 0 0 140 0 140 315 0 315 0 0 -140z"/>
<path d="M1557 1395 c-17 -24 -17 -25 3 -25 15 0 20 6 20 25 0 30 -1 30 -23 0z"/>
<path d="M343 190 c-18 -16 -33 -34 -33 -40 0 -14 23 -13 38 2 9 9 12 -4 12
-60 0 -65 2 -72 20 -72 19 0 20 7 20 100 0 112 -5 118 -57 70z"/>
</g>
</svg>
