<?xml version="1.0" standalone="no"?>
<!DOCTYPE svg PUBLIC "-//W3C//DTD SVG 20010904//EN"
 "http://www.w3.org/TR/2001/REC-SVG-20010904/DTD/svg10.dtd">
<svg version="1.0" xmlns="http://www.w3.org/2000/svg"
 width="264.000000pt" height="216.000000pt" viewBox="0 0 264.000000 216.000000"
 preserveAspectRatio="xMidYMid meet">

<g transform="translate(0.000000,216.000000) scale(0.100000,-0.100000)"
fill="#000000" stroke="none">
<path d="M303 2091 c-18 -12 -37 -35 -44 -55 l-13 -36 -123 0 c-103 0 -123 -2
-123 -15 0 -8 5 -15 10 -15 6 0 10 -53 10 -140 0 -87 -4 -140 -10 -140 -5 0
-10 -7 -10 -15 0 -8 5 -15 10 -15 16 0 13 -277 -2 -284 -10 -5 -10 -7 0 -12
15 -7 18 -284 2 -284 -5 0 -10 -7 -10 -15 0 -8 5 -15 10 -15 6 0 10 -53 10
-140 0 -87 -4 -140 -10 -140 -5 0 -10 -7 -10 -15 0 -8 5 -15 10 -15 6 0 10
-53 10 -140 0 -87 -4 -140 -10 -140 -5 0 -10 -7 -10 -15 0 -13 21 -15 125 -15
119 0 125 -1 125 -20 0 -53 57 -110 110 -110 53 0 110 57 110 110 0 20 3 20
487 20 l487 0 39 -37 c34 -34 43 -38 92 -38 49 0 58 4 92 37 l39 38 467 0
c408 0 467 2 467 15 0 8 -7 15 -15 15 -13 0 -15 22 -15 140 0 118 2 140 15
140 8 0 15 7 15 15 0 8 -7 15 -15 15 -13 0 -15 22 -15 140 0 118 2 140 15 140
8 0 15 7 15 15 0 8 -7 15 -15 15 -13 0 -15 22 -15 140 0 118 2 140 15 140 8 0
15 5 15 10 0 6 -7 10 -15 10 -13 0 -15 22 -15 140 0 118 2 140 15 140 8 0 15
7 15 15 0 8 -7 15 -15 15 -13 0 -15 22 -15 140 0 118 2 140 15 140 8 0 15 7
15 15 0 13 -127 15 -1083 15 l-1083 0 -13 36 c-14 39 -62 74 -101 74 -14 0
-39 -9 -57 -19z m-53 -261 l0 -140 -100 0 -100 0 0 140 0 140 100 0 100 0 0
-140z m410 0 l0 -140 -95 0 -95 0 0 140 0 140 95 0 95 0 0 -140z m620 0 l0
-140 -295 0 -295 0 0 140 0 140 295 0 295 0 0 -140z m660 0 l0 -140 -315 0
-315 0 0 140 0 140 315 0 315 0 0 -140z m640 0 l0 -140 -304 0 c-268 0 -305 2
-310 16 -8 20 -8 228 0 248 5 14 42 16 310 16 l304 0 0 -140z m-2330 -310 l0
-140 -100 0 -100 0 0 140 0 140 100 0 100 0 0 -140z m410 0 l0 -140 -95 0 -95
0 0 140 0 140 95 0 95 0 0 -140z m620 0 l0 -140 -292 2 -293 3 -3 138 -3 137
296 0 295 0 0 -140z m658 3 l-3 -138 -312 -3 -313 -2 0 140 0 140 315 0 316 0
-3 -137z m642 -3 l0 -140 -129 0 -128 0 -6 42 c-4 30 -16 51 -41 77 -33 33
-42 36 -91 36 -49 0 -58 -3 -91 -36 -25 -26 -37 -47 -41 -77 -5 -41 -7 -42
-43 -42 -25 0 -40 5 -44 16 -8 20 -8 228 0 248 5 14 42 16 310 16 l304 0 0
-140z m-360 -89 c0 -30 5 -52 13 -55 10 -5 10 -7 0 -12 -7 -3 -13 -14 -13 -25
0 -10 -7 -19 -15 -19 -8 0 -15 9 -15 20 0 16 -7 20 -30 20 -38 0 -38 13 3 72
42 62 57 62 57 -1z m-1970 -211 l0 -140 -100 0 -100 0 0 140 0 140 100 0 100
0 0 -140z m410 0 l0 -140 -95 0 -95 0 0 140 0 140 95 0 95 0 0 -140z m620 0
l0 -140 -295 0 -295 0 0 133 c0 74 3 137 7 140 3 4 136 7 295 7 l288 0 0 -140z
m658 -2 l3 -138 -316 0 -315 0 0 140 0 140 313 -2 312 -3 3 -137z m147 95 c42
-47 44 -48 100 -48 56 0 58 1 100 48 l43 47 126 0 126 0 0 -140 0 -140 -307 2
-308 3 -3 115 c-4 151 -1 160 44 160 30 0 43 -8 79 -47z m-1835 -403 l0 -140
-100 0 -100 0 0 140 0 140 100 0 100 0 0 -140z m410 0 l0 -140 -95 0 -95 0 0
140 0 140 95 0 95 0 0 -140z m620 0 l0 -140 -89 0 -88 0 -6 42 c-4 30 -16 51
-41 77 -33 33 -42 36 -91 36 -49 0 -58 -3 -91 -36 -25 -26 -37 -47 -41 -77
l-6 -42 -68 0 -69 0 0 140 0 140 295 0 295 0 0 -140z m660 0 l0 -140 -315 0
-315 0 0 140 0 140 315 0 315 0 0 -140z m640 0 l0 -140 -304 0 c-268 0 -305 2
-310 16 -8 20 -8 228 0 248 5 14 42 16 310 16 l304 0 0 -140z m-1582 -42 c23
-23 13 -59 -25 -94 l-37 -34 37 0 c20 0 37 -4 37 -10 0 -5 -25 -10 -55 -10
-30 0 -55 2 -55 5 0 3 21 28 46 55 29 31 44 55 40 65 -7 19 -42 20 -50 0 -7
-18 -26 -20 -26 -2 0 33 62 51 88 25z m-748 -268 l0 -140 -100 0 -100 0 0 140
0 140 100 0 100 0 0 -140z m410 0 l0 -140 -95 0 -95 0 0 140 0 140 95 0 95 0
0 -140z m213 103 c34 -34 43 -38 92 -38 49 0 58 4 92 38 l39 37 92 0 92 0 0
-140 0 -140 -295 0 -295 0 0 140 0 140 72 0 c70 0 73 -1 111 -37z m1067 -103
l0 -140 -114 0 -113 0 -6 46 c-4 36 -13 55 -41 83 -33 33 -41 36 -91 36 -50 0
-58 -3 -91 -36 -28 -28 -37 -47 -41 -83 l-6 -46 -63 0 -64 0 0 140 0 140 315
0 315 0 0 -140z m640 0 l0 -140 -304 0 c-268 0 -305 2 -310 16 -8 20 -8 228 0
248 5 14 42 16 310 16 l304 0 0 -140z m-970 -45 c7 -8 10 -25 6 -39 -3 -14 -2
-28 4 -31 15 -9 12 -42 -6 -59 -18 -19 -65 -21 -82 -4 -16 16 -15 28 3 28 8 0
15 -5 15 -11 0 -6 10 -9 22 -7 30 4 37 38 9 45 -26 7 -27 15 -1 31 11 7 17 18
14 27 -7 17 -44 21 -44 5 0 -5 -7 -10 -15 -10 -13 0 -14 4 -5 20 13 24 62 27
80 5z"/>
<path d="M2167 1405 c-17 -24 -17 -25 3 -25 15 0 20 6 20 25 0 30 -1 30 -23 0z"/>
<path d="M351 172 c-22 -38 -41 -74 -41 -80 0 -7 16 -12 40 -12 33 0 40 -3 40
-20 0 -11 7 -20 15 -20 8 0 15 9 15 20 0 11 7 20 15 20 8 0 15 7 15 15 0 8 -7
15 -15 15 -12 0 -15 14 -15 65 0 86 -16 85 -69 -3z m39 -32 c0 -23 -4 -30 -20
-30 -24 0 -25 8 -4 38 20 29 24 28 24 -8z"/>
</g>
</svg>
